<svg width="18" height="18" viewBox="0 0 18 18" fill="none" xmlns="http://www.w3.org/2000/svg">
<path d="M9.01654 0.0673828C4.05583 0.0673828 0.0332031 4.15785 0.0332031 9.20409C0.0332031 13.241 2.6072 16.6659 6.17656 17.874C6.62552 17.9586 6.79034 17.6758 6.79034 17.4345C6.79034 17.2166 6.78201 16.4969 6.77814 15.7334C4.27897 16.2861 3.75162 14.6554 3.75162 14.6554C3.34297 13.5993 2.75418 13.3185 2.75418 13.3185C1.93912 12.7514 2.81562 12.763 2.81562 12.763C3.7177 12.8273 4.19269 13.7046 4.19269 13.7046C4.99391 15.1014 6.29423 14.6976 6.80686 14.4641C6.88748 13.8737 7.12029 13.4704 7.3772 13.2424C5.38188 13.0113 3.28436 12.2279 3.28436 8.72688C3.28436 7.72934 3.63529 6.91428 4.20995 6.27442C4.11667 6.04414 3.80919 5.11499 4.29697 3.85645C4.29697 3.85645 5.05133 3.61089 6.76803 4.79302C7.48461 4.59057 8.2531 4.48905 9.01654 4.48557C9.77998 4.48905 10.5491 4.59057 11.267 4.79302C12.9816 3.61089 13.7349 3.85645 13.7349 3.85645C14.2239 5.11499 13.9163 6.04414 13.823 6.27442C14.399 6.91428 14.7475 7.72934 14.7475 8.72688C14.7475 12.2362 12.646 13.0089 10.6456 13.2351C10.9678 13.5186 11.2549 14.0747 11.2549 14.9271C11.2549 16.1495 11.2445 17.1334 11.2445 17.4345C11.2445 17.6776 11.4062 17.9625 11.8616 17.8728C15.429 16.6633 17.9997 13.2396 17.9997 9.20409C17.9997 4.15785 13.9777 0.0673828 9.01654 0.0673828Z" fill="white" fill-opacity="0.5"/>
<path d="M3.4359 13.1857C3.41611 13.2312 3.3459 13.2447 3.28193 13.2135C3.21677 13.1837 3.18018 13.1218 3.2013 13.0763C3.22064 13.0295 3.29101 13.0167 3.35601 13.0477C3.42132 13.0776 3.45851 13.1401 3.4359 13.1857Z" fill="white" fill-opacity="0.5"/>
<path d="M3.79966 13.5986C3.75682 13.639 3.67307 13.6202 3.61624 13.5564C3.55748 13.4927 3.54647 13.4075 3.58991 13.3665C3.63409 13.3261 3.71531 13.345 3.77422 13.4087C3.83298 13.4731 3.84444 13.5577 3.79966 13.5986Z" fill="white" fill-opacity="0.5"/>
<path d="M4.15392 14.1248C4.09888 14.1637 4.00888 14.1272 3.95324 14.046C3.8982 13.9647 3.8982 13.8673 3.95443 13.8282C4.01022 13.7892 4.09888 13.8243 4.15526 13.9049C4.21015 13.9874 4.21015 14.085 4.15392 14.1248Z" fill="white" fill-opacity="0.5"/>
<path d="M4.63927 14.6331C4.59003 14.6883 4.48516 14.6735 4.40839 14.5982C4.32985 14.5245 4.30798 14.4199 4.35737 14.3647C4.4072 14.3093 4.51268 14.3249 4.59003 14.3996C4.66798 14.4732 4.69178 14.5785 4.63927 14.6331Z" fill="white" fill-opacity="0.5"/>
<path d="M5.30839 14.9283C5.28667 14.9999 5.18566 15.0324 5.08391 15.002C4.98231 14.9707 4.91581 14.8869 4.93634 14.8145C4.95746 14.7425 5.05892 14.7086 5.16141 14.7412C5.26287 14.7723 5.32951 14.8555 5.30839 14.9283Z" fill="white" fill-opacity="0.5"/>
<path d="M6.04326 14.9832C6.04579 15.0586 5.95951 15.121 5.8527 15.1223C5.74529 15.1248 5.65842 15.0638 5.65723 14.9897C5.65723 14.9136 5.74157 14.8517 5.84898 14.8499C5.95579 14.8478 6.04326 14.9083 6.04326 14.9832Z" fill="white" fill-opacity="0.5"/>
<path d="M6.72774 14.8647C6.74053 14.9383 6.6663 15.0138 6.56024 15.0337C6.45596 15.0532 6.35941 15.0079 6.34617 14.9349C6.33323 14.8596 6.4088 14.7841 6.51293 14.7646C6.61915 14.7458 6.7142 14.79 6.72774 14.8647Z" fill="white" fill-opacity="0.5"/>
</svg>
