<svg width="18" height="18" viewBox="0 0 18 18" fill="none" xmlns="http://www.w3.org/2000/svg">
<path fill-rule="evenodd" clip-rule="evenodd" d="M9 18C4.02944 18 0 13.9706 0 9C0 4.02944 4.02944 0 9 0C13.9706 0 18 4.02944 18 9C18 13.9706 13.9706 18 9 18ZM9.1254 8.49488C9.86232 8.49488 13.4454 6.48 13.4454 6.48L13.4512 6.12C13.4512 5.72256 13.1286 5.4 12.7301 5.4H5.52072C5.12256 5.4 4.8 5.72256 4.8 6.12V6.44076C4.8 6.44076 8.42232 8.49488 9.1254 8.49488ZM4.80576 7.56C4.8054 7.56 8.42232 9.48488 9.1254 9.48488C9.89616 9.48488 13.4454 7.56 13.4454 7.56L13.4512 11.88C13.4512 12.2774 13.1286 12.6 12.7301 12.6H5.52072C5.12292 12.6 4.8 12.2774 4.8 11.88L4.80576 7.56Z" fill="white" fill-opacity="0.5"/>
</svg>
