<svg width="18" height="18" viewBox="0 0 18 18" fill="none" xmlns="http://www.w3.org/2000/svg">
<path fill-rule="evenodd" clip-rule="evenodd" d="M9 0C4.02944 0 0 4.02944 0 9C0 13.9706 4.02944 18 9 18C13.9706 18 18 13.9706 18 9C18 4.02944 13.9706 0 9 0ZM6.29541 4.5C6.32204 4.52112 6.34316 4.52112 6.36429 4.51837C6.47357 4.50918 6.56725 4.53582 6.62786 4.63592C6.63856 4.65327 6.64926 4.67062 6.65997 4.68797C6.78528 4.89106 6.91081 5.09453 7.03011 5.30267C7.11648 5.45314 7.19887 5.60607 7.28135 5.75914C7.34182 5.87139 7.40234 5.98372 7.46451 6.09523C7.48858 6.14043 7.51864 6.183 7.54872 6.22558C7.5657 6.24962 7.58269 6.27367 7.59859 6.29819C7.63692 6.35917 7.6736 6.42181 7.70941 6.48296L7.71523 6.49289C7.79237 6.63891 7.7887 6.78585 7.6739 6.90249C7.55306 7.02605 7.42318 7.14308 7.29354 7.2599C7.24781 7.30111 7.20211 7.34229 7.15685 7.38372C7.10058 7.43537 7.04347 7.48618 6.9864 7.53698C6.8963 7.61715 6.80628 7.69726 6.7197 7.78046C6.6095 7.887 6.58103 8.02016 6.65541 8.16067C6.66231 8.17358 6.6692 8.18648 6.67609 8.19939C6.78393 8.40137 6.89165 8.60311 7.00991 8.80079C7.47645 9.57866 8.07248 10.2399 8.82555 10.7496C9.11576 10.947 9.41791 11.128 9.72281 11.3006C10.0103 11.4632 10.1223 11.4356 10.3455 11.1867C10.4633 11.0558 10.5788 10.9238 10.6945 10.7915C10.7825 10.6908 10.8706 10.5901 10.9599 10.4897C11.0095 10.4337 11.0692 10.3841 11.127 10.3363C11.2446 10.2371 11.3731 10.2261 11.5081 10.2941C11.5166 10.2982 11.5252 10.3022 11.5338 10.3063C11.5636 10.3202 11.5936 10.3343 11.6193 10.3529C11.8588 10.5242 12.1171 10.6618 12.3752 10.7993C12.503 10.8674 12.6308 10.9355 12.7562 11.0077C12.8855 11.0819 13.0125 11.1596 13.1392 11.237C13.2115 11.2812 13.2836 11.3252 13.3559 11.3686C13.4634 11.432 13.5066 11.5247 13.4992 11.6524C13.479 12.0115 13.4193 12.3641 13.2108 12.6672C13.1236 12.793 12.9996 12.9032 12.8747 12.9923C12.5285 13.2347 12.1418 13.3844 11.7304 13.4763C11.3566 13.5598 10.9838 13.5295 10.6256 13.4175C9.93404 13.2044 9.2526 12.9601 8.62535 12.59C8.05595 12.253 7.53798 11.8461 7.05858 11.3915C6.45153 10.8139 5.90969 10.1839 5.47162 9.46661C5.186 9.00099 4.98212 8.49956 4.79753 7.98802C4.68548 7.67944 4.57528 7.37362 4.52568 7.04668C4.46874 6.67657 4.50823 6.32023 4.62671 5.96941C4.73324 5.65257 4.8664 5.3495 5.06753 5.07858C5.22549 4.86827 5.42294 4.71398 5.67825 4.6451C5.82252 4.60694 5.96769 4.57424 6.11281 4.54155C6.17371 4.52783 6.2346 4.51412 6.29541 4.5Z" fill="white" fill-opacity="0.5"/>
</svg>
