<svg width="213" height="50" viewBox="0 0 213 50" fill="none" xmlns="http://www.w3.org/2000/svg">
<g filter="url(#filter0_dddd_221_100)">
<path d="M25.3936 9.6C25.5336 9.6 25.6456 9.656 25.7296 9.768C25.8136 9.852 25.8416 9.964 25.8136 10.104L25.2256 15.06C25.1976 15.2 25.1276 15.326 25.0156 15.438C24.9316 15.522 24.8196 15.564 24.6796 15.564H19.5976C19.4576 15.564 19.3876 15.634 19.3876 15.774L16.5736 38.496C16.5736 38.636 16.5176 38.762 16.4056 38.874C16.2936 38.958 16.1676 39 16.0276 39H10.2736C9.96559 39 9.81159 38.832 9.81159 38.496L12.6256 15.774C12.6256 15.634 12.5696 15.564 12.4576 15.564H7.58559C7.44559 15.564 7.33359 15.522 7.24959 15.438C7.16559 15.326 7.13759 15.2 7.16559 15.06L7.75359 10.104C7.78159 9.964 7.85159 9.852 7.96359 9.768C8.07559 9.656 8.20159 9.6 8.34159 9.6H25.3936ZM31.2119 39.336C28.8599 39.336 27.0259 38.804 25.7099 37.74C24.4219 36.648 23.7779 35.136 23.7779 33.204C23.7779 32.952 23.8059 32.574 23.8619 32.07L24.8279 24.216C25.1079 22.004 26.0459 20.24 27.6419 18.924C29.2659 17.608 31.3659 16.95 33.9419 16.95C36.2939 16.95 38.1139 17.51 39.4019 18.63C40.7179 19.722 41.3759 21.22 41.3759 23.124C41.3759 23.348 41.3479 23.712 41.2919 24.216L40.3259 32.07C40.0459 34.338 39.1079 36.116 37.5119 37.404C35.9159 38.692 33.8159 39.336 31.2119 39.336ZM31.9259 33.33C32.3739 33.33 32.7519 33.162 33.0599 32.826C33.3679 32.49 33.5639 32.042 33.6479 31.482L34.4459 24.762L34.4879 24.384C34.4879 23.936 34.3759 23.586 34.1519 23.334C33.9279 23.054 33.6199 22.914 33.2279 22.914C32.7799 22.914 32.4019 23.082 32.0939 23.418C31.7859 23.754 31.6039 24.202 31.5479 24.762L30.7079 31.482C30.6519 32.042 30.7359 32.49 30.9599 32.826C31.1839 33.162 31.5059 33.33 31.9259 33.33ZM56.7669 16.992C57.4109 16.992 57.9709 17.146 58.4469 17.454C58.6149 17.622 58.6709 17.832 58.6149 18.084L56.9349 24.006C56.8509 24.314 56.6549 24.426 56.3469 24.342C55.9549 24.23 55.6189 24.174 55.3389 24.174C54.8629 24.174 54.4149 24.258 53.9949 24.426C53.4909 24.594 53.0429 24.944 52.6509 25.476C52.2869 26.008 52.0629 26.596 51.9789 27.24L50.5929 38.454C50.5649 38.594 50.4949 38.72 50.3829 38.832C50.2989 38.916 50.1869 38.958 50.0469 38.958H44.2509C44.1109 38.958 43.9989 38.916 43.9149 38.832C43.8309 38.72 43.8029 38.594 43.8309 38.454L46.3929 17.79C46.4209 17.65 46.4769 17.538 46.5609 17.454C46.6729 17.342 46.7989 17.286 46.9389 17.286H52.7349C52.8749 17.286 52.9869 17.342 53.0709 17.454C53.1549 17.538 53.1829 17.65 53.1549 17.79L52.9869 19.134C52.9589 19.246 52.9589 19.316 52.9869 19.344C53.0429 19.344 53.0989 19.302 53.1549 19.218C54.0509 17.734 55.2549 16.992 56.7669 16.992ZM72.1042 21.612C72.0762 21.752 72.0062 21.878 71.8942 21.99C71.8102 22.074 71.6982 22.116 71.5582 22.116H69.4582C69.3182 22.116 69.2482 22.186 69.2482 22.326L68.1562 31.314L68.1142 31.776C68.1142 32.252 68.2262 32.588 68.4502 32.784C68.7022 32.952 69.0522 33.022 69.5002 32.994H69.6682C69.9762 32.994 70.1302 33.162 70.1302 33.498L69.5002 38.496C69.4722 38.636 69.4022 38.762 69.2902 38.874C69.2062 38.958 69.0942 39 68.9542 39H67.1062C65.1742 39 63.7042 38.734 62.6962 38.202C61.7162 37.642 61.2262 36.606 61.2262 35.094C61.2262 34.87 61.2542 34.534 61.3102 34.086L62.7802 22.326C62.7802 22.186 62.7102 22.116 62.5702 22.116H61.2682C61.1282 22.116 61.0162 22.074 60.9322 21.99C60.8482 21.878 60.8202 21.752 60.8482 21.612L61.3102 17.79C61.3382 17.65 61.3942 17.538 61.4782 17.454C61.5902 17.342 61.7162 17.286 61.8562 17.286H63.2002C63.2562 17.286 63.2982 17.272 63.3262 17.244C63.3822 17.188 63.4102 17.132 63.4102 17.076L63.9982 12.414C63.9982 12.274 64.0542 12.162 64.1662 12.078C64.2782 11.966 64.4042 11.91 64.5442 11.91H70.0462C70.1862 11.91 70.2982 11.966 70.3822 12.078C70.4662 12.162 70.4942 12.274 70.4662 12.414L69.8782 17.076C69.8782 17.216 69.9342 17.286 70.0462 17.286H72.1462C72.2862 17.286 72.3982 17.342 72.4822 17.454C72.5662 17.538 72.5942 17.65 72.5662 17.79L72.1042 21.612ZM81.8498 39.336C79.4978 39.336 77.6638 38.804 76.3478 37.74C75.0598 36.648 74.4158 35.136 74.4158 33.204C74.4158 32.952 74.4438 32.574 74.4998 32.07L75.4658 24.216C75.7458 22.004 76.6838 20.24 78.2798 18.924C79.9038 17.608 82.0038 16.95 84.5798 16.95C86.9318 16.95 88.7518 17.51 90.0398 18.63C91.3558 19.722 92.0138 21.22 92.0138 23.124C92.0138 23.348 91.9858 23.712 91.9298 24.216L90.9638 32.07C90.6838 34.338 89.7458 36.116 88.1498 37.404C86.5538 38.692 84.4538 39.336 81.8498 39.336ZM82.5638 33.33C83.0118 33.33 83.3898 33.162 83.6978 32.826C84.0058 32.49 84.2018 32.042 84.2858 31.482L85.0838 24.762L85.1258 24.384C85.1258 23.936 85.0138 23.586 84.7898 23.334C84.5658 23.054 84.2578 22.914 83.8658 22.914C83.4178 22.914 83.0398 23.082 82.7318 23.418C82.4238 23.754 82.2418 24.202 82.1858 24.762L81.3458 31.482C81.2898 32.042 81.3738 32.49 81.5978 32.826C81.8218 33.162 82.1438 33.33 82.5638 33.33ZM111.689 29.55C111.689 29.69 111.633 29.816 111.521 29.928C111.409 30.012 111.283 30.054 111.143 30.054H102.281C102.169 30.054 102.085 30.124 102.029 30.264L101.903 31.524C101.847 32.084 101.917 32.532 102.113 32.868C102.337 33.204 102.659 33.372 103.079 33.372C103.779 33.372 104.325 32.882 104.717 31.902C104.801 31.594 104.997 31.44 105.305 31.44L110.849 31.776C110.989 31.776 111.101 31.832 111.185 31.944C111.269 32.028 111.297 32.154 111.269 32.322C110.849 34.674 109.897 36.438 108.413 37.614C106.957 38.762 104.941 39.336 102.365 39.336C100.013 39.336 98.1928 38.804 96.9048 37.74C95.6168 36.648 94.9728 35.136 94.9728 33.204C94.9728 32.952 95.0008 32.574 95.0568 32.07L96.0228 24.216C96.3028 22.032 97.2408 20.282 98.8368 18.966C100.461 17.622 102.547 16.95 105.095 16.95C107.419 16.95 109.225 17.51 110.513 18.63C111.801 19.722 112.445 21.22 112.445 23.124C112.445 23.348 112.417 23.712 112.361 24.216L111.689 29.55ZM104.381 22.914C103.961 22.914 103.597 23.096 103.289 23.46C102.981 23.796 102.799 24.23 102.743 24.762L102.575 26.064C102.519 26.204 102.575 26.274 102.743 26.274H105.137C105.249 26.274 105.333 26.204 105.389 26.064L105.515 24.762C105.543 24.678 105.557 24.538 105.557 24.342C105.557 23.922 105.445 23.586 105.221 23.334C105.025 23.054 104.745 22.914 104.381 22.914ZM120.871 15.354C119.947 15.354 119.205 15.06 118.645 14.472C118.085 13.884 117.805 13.128 117.805 12.204C117.805 11 118.183 10.006 118.939 9.222C119.723 8.438 120.675 8.046 121.795 8.046C122.719 8.046 123.461 8.326 124.021 8.886C124.609 9.446 124.903 10.188 124.903 11.112C124.903 12.316 124.511 13.324 123.727 14.136C122.971 14.948 122.019 15.354 120.871 15.354ZM115.159 39C115.019 39 114.907 38.958 114.823 38.874C114.739 38.762 114.711 38.636 114.739 38.496L117.301 17.79C117.329 17.65 117.385 17.538 117.469 17.454C117.581 17.342 117.707 17.286 117.847 17.286H123.643C123.783 17.286 123.895 17.342 123.979 17.454C124.063 17.538 124.091 17.65 124.063 17.79L121.501 38.496C121.473 38.636 121.403 38.762 121.291 38.874C121.207 38.958 121.095 39 120.955 39H115.159ZM129.473 39.252C128.521 39.252 127.751 38.958 127.163 38.37C126.603 37.782 126.323 37.026 126.323 36.102C126.323 34.898 126.715 33.904 127.499 33.12C128.283 32.336 129.235 31.944 130.355 31.944C131.307 31.944 132.063 32.224 132.623 32.784C133.183 33.344 133.463 34.1 133.463 35.052C133.463 36.228 133.071 37.222 132.287 38.034C131.503 38.846 130.565 39.252 129.473 39.252ZM145.415 39.336C143.063 39.336 141.243 38.804 139.955 37.74C138.667 36.648 138.023 35.136 138.023 33.204C138.023 32.952 138.051 32.574 138.107 32.07L139.073 24.216C139.353 22.032 140.291 20.282 141.887 18.966C143.511 17.622 145.597 16.95 148.145 16.95C150.469 16.95 152.275 17.51 153.563 18.63C154.851 19.722 155.495 21.192 155.495 23.04C155.495 23.236 155.467 23.586 155.411 24.09L155.327 25.014C155.299 25.154 155.229 25.28 155.117 25.392C155.033 25.476 154.921 25.518 154.781 25.518L148.943 25.77C148.635 25.77 148.495 25.602 148.523 25.266L148.607 24.636C148.663 24.16 148.579 23.754 148.355 23.418C148.131 23.082 147.823 22.914 147.431 22.914C147.011 22.914 146.647 23.096 146.339 23.46C146.031 23.796 145.849 24.23 145.793 24.762L144.953 31.524C144.897 32.084 144.967 32.532 145.163 32.868C145.387 33.204 145.709 33.372 146.129 33.372C146.549 33.372 146.899 33.204 147.179 32.868C147.487 32.532 147.669 32.112 147.725 31.608L147.809 30.978C147.837 30.838 147.893 30.726 147.977 30.642C148.089 30.53 148.215 30.474 148.355 30.474L154.151 30.516C154.291 30.516 154.403 30.572 154.487 30.684C154.571 30.768 154.599 30.88 154.571 31.02L154.445 32.154C154.165 34.394 153.227 36.158 151.631 37.446C150.063 38.706 147.991 39.336 145.415 39.336ZM165.686 39.336C163.334 39.336 161.5 38.804 160.184 37.74C158.896 36.648 158.252 35.136 158.252 33.204C158.252 32.952 158.28 32.574 158.336 32.07L159.302 24.216C159.582 22.004 160.52 20.24 162.116 18.924C163.74 17.608 165.84 16.95 168.416 16.95C170.768 16.95 172.588 17.51 173.876 18.63C175.192 19.722 175.85 21.22 175.85 23.124C175.85 23.348 175.822 23.712 175.766 24.216L174.8 32.07C174.52 34.338 173.582 36.116 171.986 37.404C170.39 38.692 168.29 39.336 165.686 39.336ZM166.4 33.33C166.848 33.33 167.226 33.162 167.534 32.826C167.842 32.49 168.038 32.042 168.122 31.482L168.92 24.762L168.962 24.384C168.962 23.936 168.85 23.586 168.626 23.334C168.402 23.054 168.094 22.914 167.702 22.914C167.254 22.914 166.876 23.082 166.568 23.418C166.26 23.754 166.078 24.202 166.022 24.762L165.182 31.482C165.126 32.042 165.21 32.49 165.434 32.826C165.658 33.162 165.98 33.33 166.4 33.33ZM200.943 16.95C204.219 16.95 205.857 18.826 205.857 22.578C205.857 23.138 205.815 23.74 205.731 24.384L203.967 38.496C203.939 38.636 203.869 38.762 203.757 38.874C203.673 38.958 203.561 39 203.421 39H197.625C197.485 39 197.373 38.958 197.289 38.874C197.205 38.762 197.177 38.636 197.205 38.496L198.885 24.888C198.913 24.776 198.927 24.608 198.927 24.384C198.927 23.908 198.829 23.544 198.633 23.292C198.437 23.04 198.171 22.914 197.835 22.914C196.911 22.914 196.365 23.558 196.197 24.846L194.517 38.496C194.489 38.636 194.419 38.762 194.307 38.874C194.223 38.958 194.111 39 193.971 39H188.175C188.035 39 187.923 38.958 187.839 38.874C187.755 38.762 187.727 38.636 187.755 38.496L189.435 24.888C189.463 24.776 189.477 24.608 189.477 24.384C189.477 23.908 189.379 23.544 189.183 23.292C188.987 23.04 188.721 22.914 188.385 22.914C187.937 22.914 187.573 23.082 187.293 23.418C187.013 23.754 186.831 24.23 186.747 24.846L185.067 38.496C185.039 38.636 184.969 38.762 184.857 38.874C184.773 38.958 184.661 39 184.521 39H178.725C178.585 39 178.473 38.958 178.389 38.874C178.305 38.762 178.277 38.636 178.305 38.496L180.867 17.79C180.895 17.65 180.951 17.538 181.035 17.454C181.147 17.342 181.273 17.286 181.413 17.286H187.209C187.349 17.286 187.461 17.342 187.545 17.454C187.629 17.538 187.657 17.65 187.629 17.79L187.587 18.21C187.559 18.294 187.573 18.35 187.629 18.378C187.685 18.406 187.741 18.392 187.797 18.336C188.889 17.412 190.121 16.95 191.493 16.95C193.649 16.95 195.091 17.776 195.819 19.428C195.819 19.456 195.847 19.47 195.903 19.47C196.015 19.47 196.127 19.386 196.239 19.218C197.443 17.706 199.011 16.95 200.943 16.95Z" fill="url(#paint0_linear_221_100)" fill-opacity="0.01" shape-rendering="crispEdges"/>
<path d="M25.7296 9.768L25.6689 9.8135L25.6765 9.82109L25.7296 9.768ZM25.8136 10.104L25.7397 10.0892L25.739 10.0952L25.8136 10.104ZM25.2256 15.06L25.2995 15.0748L25.3002 15.0688L25.2256 15.06ZM25.0156 15.438L24.9625 15.3849V15.3849L25.0156 15.438ZM19.3876 15.774L19.4627 15.7833V15.774H19.3876ZM16.5736 38.496L16.4985 38.4867V38.496H16.5736ZM16.4056 38.874L16.4511 38.9347L16.4587 38.9271L16.4056 38.874ZM9.81159 38.496L9.73651 38.4867V38.496H9.81159ZM12.6256 15.774L12.7007 15.7833V15.774H12.6256ZM7.24959 15.438L7.18892 15.4835L7.1965 15.4911L7.24959 15.438ZM7.16559 15.06L7.23945 15.0748L7.24015 15.0688L7.16559 15.06ZM7.75359 10.104L7.67974 10.0892L7.67904 10.0952L7.75359 10.104ZM7.96359 9.768L8.0091 9.82867L8.01668 9.82109L7.96359 9.768ZM25.3936 9.67508C25.51 9.67508 25.5997 9.71995 25.6695 9.81305L25.7897 9.72295C25.6915 9.59204 25.5572 9.52492 25.3936 9.52492V9.67508ZM25.6765 9.82109C25.739 9.88358 25.7642 9.96819 25.74 10.0893L25.8872 10.1187C25.919 9.95981 25.8882 9.82041 25.7827 9.71491L25.6765 9.82109ZM25.739 10.0952L25.151 15.0512L25.3002 15.0688L25.8882 10.1128L25.739 10.0952ZM25.152 15.0453C25.1272 15.1692 25.0652 15.2822 24.9625 15.3849L25.0687 15.4911C25.19 15.3698 25.268 15.2308 25.2992 15.0747L25.152 15.0453ZM24.9625 15.3849C24.8951 15.4523 24.8035 15.4889 24.6796 15.4889V15.6391C24.8357 15.6391 24.9681 15.5917 25.0687 15.4911L24.9625 15.3849ZM24.6796 15.4889H19.5976V15.6391H24.6796V15.4889ZM19.5976 15.4889C19.516 15.4889 19.4411 15.5094 19.387 15.5634C19.333 15.6175 19.3125 15.6924 19.3125 15.774H19.4627C19.4627 15.7156 19.4772 15.6855 19.4932 15.6696C19.5091 15.6536 19.5392 15.6391 19.5976 15.6391V15.4889ZM19.3131 15.7648L16.4991 38.4868L16.6481 38.5052L19.4621 15.7832L19.3131 15.7648ZM16.4985 38.496C16.4985 38.6134 16.4524 38.721 16.3525 38.8209L16.4587 38.9271C16.5827 38.803 16.6487 38.6586 16.6487 38.496H16.4985ZM16.3605 38.8139C16.2615 38.8882 16.1513 38.9249 16.0276 38.9249V39.0751C16.1838 39.0751 16.3256 39.0278 16.4506 38.9341L16.3605 38.8139ZM16.0276 38.9249H10.2736V39.0751H16.0276V38.9249ZM10.2736 38.9249C10.1329 38.9249 10.0407 38.8869 9.98244 38.8233C9.92301 38.7584 9.88668 38.654 9.88668 38.496H9.73651C9.73651 38.674 9.77717 38.8216 9.87175 38.9247C9.96745 39.0291 10.1063 39.0751 10.2736 39.0751V38.9249ZM9.88611 38.5052L12.7001 15.7832L12.5511 15.7648L9.73708 38.4868L9.88611 38.5052ZM12.7007 15.774C12.7007 15.696 12.6854 15.6236 12.6422 15.5696C12.5965 15.5124 12.5302 15.4889 12.4576 15.4889V15.6391C12.497 15.6391 12.5147 15.6506 12.525 15.6634C12.5378 15.6794 12.5505 15.712 12.5505 15.774H12.7007ZM12.4576 15.4889H7.58559V15.6391H12.4576V15.4889ZM7.58559 15.4889C7.46168 15.4889 7.37011 15.4523 7.30269 15.3849L7.1965 15.4911C7.29708 15.5917 7.42951 15.6391 7.58559 15.6391V15.4889ZM7.30966 15.3929C7.23876 15.2984 7.21531 15.1943 7.23922 15.0747L7.09197 15.0453C7.05988 15.2057 7.09242 15.3536 7.18953 15.483L7.30966 15.3929ZM7.24015 15.0688L7.82815 10.1128L7.67904 10.0952L7.09104 15.0512L7.24015 15.0688ZM7.82722 10.1187C7.85167 9.99644 7.91174 9.90074 8.00864 9.82806L7.91854 9.70793C7.79145 9.80326 7.71151 9.93156 7.67997 10.0893L7.82722 10.1187ZM8.01668 9.82109C8.11662 9.72115 8.22419 9.67508 8.34159 9.67508V9.52492C8.179 9.52492 8.03457 9.59084 7.9105 9.71491L8.01668 9.82109ZM8.34159 9.67508H25.3936V9.52492H8.34159V9.67508ZM25.7099 37.74L25.6613 37.7973L25.6627 37.7984L25.7099 37.74ZM23.8619 32.07L23.7874 32.0608L23.7873 32.0617L23.8619 32.07ZM24.8279 24.216L24.7534 24.2066L24.7534 24.2068L24.8279 24.216ZM27.6419 18.924L27.5946 18.8657L27.5941 18.8661L27.6419 18.924ZM39.4019 18.63L39.3526 18.6867L39.354 18.6878L39.4019 18.63ZM41.2919 24.216L41.3664 24.2252L41.3665 24.2243L41.2919 24.216ZM40.3259 32.07L40.4004 32.0792L40.4004 32.0792L40.3259 32.07ZM37.5119 37.404L37.4648 37.3456L37.5119 37.404ZM33.0599 32.826L33.1153 32.8767L33.0599 32.826ZM33.6479 31.482L33.7222 31.4931L33.7225 31.4909L33.6479 31.482ZM34.4459 24.762L34.5205 24.7709L34.5205 24.7703L34.4459 24.762ZM34.4879 24.384L34.563 24.3923V24.384H34.4879ZM34.1519 23.334L34.0932 23.381L34.0958 23.3839L34.1519 23.334ZM32.0939 23.418L32.1493 23.4687L32.0939 23.418ZM31.5479 24.762L31.6224 24.7713L31.6226 24.7695L31.5479 24.762ZM30.7079 31.482L30.6334 31.4727L30.6332 31.4745L30.7079 31.482ZM30.9599 32.826L30.8974 32.8676L30.9599 32.826ZM31.2119 39.2609C28.8705 39.2609 27.0554 38.7313 25.7571 37.6816L25.6627 37.7984C26.9964 38.8767 28.8493 39.4111 31.2119 39.4111V39.2609ZM25.7585 37.6827C24.4898 36.6071 23.853 35.1175 23.853 33.204H23.7028C23.7028 35.1545 24.354 36.6889 25.6614 37.7973L25.7585 37.6827ZM23.853 33.204C23.853 32.9563 23.8806 32.5817 23.9365 32.0783L23.7873 32.0617C23.7312 32.5663 23.7028 32.9477 23.7028 33.204H23.853ZM23.9364 32.0792L24.9024 24.2252L24.7534 24.2068L23.7874 32.0608L23.9364 32.0792ZM24.9024 24.2254C25.1802 22.0308 26.1096 20.2848 27.6897 18.9819L27.5941 18.8661C25.9822 20.1952 25.0356 21.9772 24.7534 24.2066L24.9024 24.2254ZM27.6892 18.9823C29.2969 17.6795 31.379 17.0251 33.9419 17.0251V16.8749C31.3528 16.8749 29.2349 17.5365 27.5946 18.8657L27.6892 18.9823ZM33.9419 17.0251C36.2826 17.0251 38.0827 17.5824 39.3526 18.6867L39.4512 18.5733C38.1451 17.4376 36.3052 16.8749 33.9419 16.8749V17.0251ZM39.354 18.6878C40.6507 19.7638 41.3008 21.2395 41.3008 23.124H41.451C41.451 21.2005 40.7851 19.6802 39.4499 18.5722L39.354 18.6878ZM41.3008 23.124C41.3008 23.3435 41.2733 23.7039 41.2173 24.2077L41.3665 24.2243C41.4226 23.7201 41.451 23.3525 41.451 23.124H41.3008ZM41.2174 24.2068L40.2514 32.0608L40.4004 32.0792L41.3664 24.2252L41.2174 24.2068ZM40.2514 32.0608C39.9735 34.3119 39.0438 36.0713 37.4648 37.3456L37.5591 37.4624C39.172 36.1607 40.1183 34.3641 40.4004 32.0792L40.2514 32.0608ZM37.4648 37.3456C35.8854 38.6202 33.8035 39.2609 31.2119 39.2609V39.4111C33.8284 39.4111 35.9464 38.7638 37.5591 37.4624L37.4648 37.3456ZM31.9259 33.4051C32.3954 33.4051 32.7933 33.2279 33.1153 32.8767L33.0046 32.7753C32.7105 33.0961 32.3524 33.2549 31.9259 33.2549V33.4051ZM33.1153 32.8767C33.4356 32.5273 33.6365 32.0643 33.7222 31.4931L33.5737 31.4709C33.4913 32.0197 33.3002 32.4527 33.0046 32.7753L33.1153 32.8767ZM33.7225 31.4909L34.5205 24.7709L34.3713 24.7531L33.5733 31.4731L33.7225 31.4909ZM34.5205 24.7703L34.5625 24.3923L34.4133 24.3757L34.3713 24.7537L34.5205 24.7703ZM34.563 24.384C34.563 23.9238 34.4478 23.5538 34.208 23.2841L34.0958 23.3839C34.304 23.6181 34.4128 23.9482 34.4128 24.384H34.563ZM34.2105 23.2871C33.9708 22.9875 33.6403 22.8389 33.2279 22.8389V22.9891C33.5995 22.9891 33.885 23.1205 34.0933 23.3809L34.2105 23.2871ZM33.2279 22.8389C32.7584 22.8389 32.3605 23.0161 32.0386 23.3673L32.1493 23.4687C32.4433 23.1479 32.8014 22.9891 33.2279 22.9891V22.8389ZM32.0386 23.3673C31.7172 23.7178 31.5304 24.1823 31.4732 24.7545L31.6226 24.7695C31.6774 24.2217 31.8546 23.7902 32.1493 23.4687L32.0386 23.3673ZM31.4734 24.7527L30.6334 31.4727L30.7824 31.4913L31.6224 24.7713L31.4734 24.7527ZM30.6332 31.4745C30.5761 32.0451 30.6606 32.5124 30.8974 32.8676L31.0224 32.7844C30.8112 32.4676 30.7277 32.0389 30.7826 31.4895L30.6332 31.4745ZM30.8974 32.8676C31.136 33.2255 31.482 33.4051 31.9259 33.4051V33.2549C31.5298 33.2549 31.2318 33.0985 31.0224 32.7844L30.8974 32.8676ZM58.4469 17.454L58.5 17.4009L58.4944 17.3953L58.4877 17.391L58.4469 17.454ZM58.6149 18.084L58.6873 18.1045L58.6882 18.1003L58.6149 18.084ZM56.9349 24.006L56.8627 23.9855L56.8625 23.9862L56.9349 24.006ZM56.3469 24.342L56.3263 24.4142L56.3272 24.4144L56.3469 24.342ZM53.9949 24.426L54.0187 24.4974L54.0228 24.4957L53.9949 24.426ZM52.6509 25.476L52.5905 25.4314L52.589 25.4336L52.6509 25.476ZM51.9789 27.24L51.9045 27.2303L51.9044 27.2308L51.9789 27.24ZM50.5929 38.454L50.6668 38.4688L50.6675 38.4632L50.5929 38.454ZM50.3829 38.832L50.436 38.8851L50.3829 38.832ZM43.9149 38.832L43.8543 38.8775L43.8618 38.8851L43.9149 38.832ZM43.8309 38.454L43.9048 38.4688L43.9054 38.4632L43.8309 38.454ZM46.3929 17.79L46.3191 17.7752L46.3184 17.7808L46.3929 17.79ZM46.5609 17.454L46.614 17.5071V17.5071L46.5609 17.454ZM53.0709 17.454L53.0103 17.4995L53.0178 17.5071L53.0709 17.454ZM53.1549 17.79L53.0811 17.7752L53.0804 17.7807L53.1549 17.79ZM52.9869 19.134L53.0603 19.1523L53.0614 19.1433L52.9869 19.134ZM52.9869 19.344L52.9338 19.3971L52.9558 19.4191H52.9869V19.344ZM53.1549 19.218L53.2175 19.2597L53.2192 19.2568L53.1549 19.218ZM56.7669 17.0671C57.3985 17.0671 57.9439 17.2179 58.4062 17.517L58.4877 17.391C57.998 17.0741 57.4234 16.9169 56.7669 16.9169V17.0671ZM58.3938 17.5071C58.5419 17.6551 58.5927 17.8382 58.5416 18.0677L58.6882 18.1003C58.7492 17.8258 58.688 17.5889 58.5 17.4009L58.3938 17.5071ZM58.5427 18.0635L56.8627 23.9855L57.0072 24.0265L58.6872 18.1045L58.5427 18.0635ZM56.8625 23.9862C56.8235 24.1291 56.7623 24.2132 56.6877 24.2558C56.6131 24.2984 56.5095 24.3085 56.3667 24.2696L56.3272 24.4144C56.4923 24.4595 56.6408 24.4556 56.7622 24.3862C56.8836 24.3168 56.9623 24.1909 57.0074 24.0258L56.8625 23.9862ZM56.3676 24.2698C55.9716 24.1567 55.6283 24.0989 55.3389 24.0989V24.2491C55.6096 24.2491 55.9383 24.3033 56.3263 24.4142L56.3676 24.2698ZM55.3389 24.0989C54.8539 24.0989 54.3964 24.1846 53.9671 24.3563L54.0228 24.4957C54.4335 24.3314 54.872 24.2491 55.3389 24.2491V24.0989ZM53.9712 24.3548C53.4493 24.5287 52.9894 24.8901 52.5905 25.4315L52.7114 25.5205C53.0965 24.9979 53.5326 24.6592 54.0187 24.4972L53.9712 24.3548ZM52.589 25.4336C52.2182 25.9754 51.99 26.5747 51.9045 27.2303L52.0534 27.2497C52.1359 26.6173 52.3556 26.0406 52.7129 25.5184L52.589 25.4336ZM51.9044 27.2308L50.5184 38.4448L50.6675 38.4632L52.0535 27.2492L51.9044 27.2308ZM50.5193 38.4393C50.4945 38.5632 50.4326 38.6762 50.3298 38.7789L50.436 38.8851C50.5573 38.7638 50.6353 38.6248 50.6666 38.4687L50.5193 38.4393ZM50.3298 38.7789C50.2624 38.8463 50.1709 38.8829 50.0469 38.8829V39.0331C50.203 39.0331 50.3355 38.9857 50.436 38.8851L50.3298 38.7789ZM50.0469 38.8829H44.2509V39.0331H50.0469V38.8829ZM44.2509 38.8829C44.127 38.8829 44.0355 38.8463 43.968 38.7789L43.8618 38.8851C43.9624 38.9857 44.0949 39.0331 44.2509 39.0331V38.8829ZM43.975 38.7869C43.9041 38.6924 43.8807 38.5883 43.9046 38.4687L43.7573 38.4393C43.7252 38.5997 43.7578 38.7476 43.8549 38.877L43.975 38.7869ZM43.9054 38.4632L46.4674 17.7992L46.3184 17.7808L43.7564 38.4448L43.9054 38.4632ZM46.4666 17.8047C46.4922 17.6763 46.5425 17.5786 46.614 17.5071L46.5078 17.4009C46.4114 17.4973 46.3496 17.6237 46.3193 17.7753L46.4666 17.8047ZM46.614 17.5071C46.714 17.4072 46.8215 17.3611 46.9389 17.3611V17.2109C46.7763 17.2109 46.6319 17.2768 46.5078 17.4009L46.614 17.5071ZM46.9389 17.3611H52.7349V17.2109H46.9389V17.3611ZM52.7349 17.3611C52.8513 17.3611 52.9411 17.406 53.0109 17.499L53.131 17.409C53.0328 17.278 52.8986 17.2109 52.7349 17.2109V17.3611ZM53.0178 17.5071C53.0803 17.5696 53.1055 17.6542 53.0813 17.7753L53.2286 17.8047C53.2603 17.6458 53.2295 17.5064 53.124 17.4009L53.0178 17.5071ZM53.0804 17.7807L52.9124 19.1247L53.0614 19.1433L53.2294 17.7993L53.0804 17.7807ZM52.9141 19.1158C52.8994 19.1744 52.8909 19.2267 52.8909 19.2705C52.8909 19.3113 52.8982 19.3615 52.9338 19.3971L53.04 19.2909C53.0476 19.2985 53.041 19.2997 53.041 19.2705C53.041 19.2443 53.0464 19.2056 53.0598 19.1522L52.9141 19.1158ZM52.9869 19.4191C53.0828 19.4191 53.1584 19.3482 53.2174 19.2596L53.0925 19.1764C53.0395 19.2558 53.0031 19.2689 52.9869 19.2689V19.4191ZM53.2192 19.2568C54.104 17.7914 55.2855 17.0671 56.7669 17.0671V16.9169C55.2244 16.9169 53.9979 17.6766 53.0907 19.1792L53.2192 19.2568ZM72.1042 21.612L72.178 21.6268L72.1787 21.621L72.1042 21.612ZM71.8942 21.99L71.8411 21.9369V21.9369L71.8942 21.99ZM69.2482 22.326L69.3232 22.3351V22.326H69.2482ZM68.1562 31.314L68.0816 31.3049L68.0814 31.3072L68.1562 31.314ZM68.1142 31.776L68.0391 31.7692V31.776H68.1142ZM68.4502 32.784L68.4003 32.841L68.4085 32.8465L68.4502 32.784ZM69.5002 32.994V32.9188L69.4955 32.9191L69.5002 32.994ZM70.1302 33.498L70.2052 33.5075V33.498H70.1302ZM69.5002 38.496L69.574 38.5108L69.5746 38.5054L69.5002 38.496ZM69.2902 38.874L69.2371 38.8209L69.2902 38.874ZM62.6962 38.202L62.6589 38.2672L62.6611 38.2684L62.6962 38.202ZM61.3102 34.086L61.3847 34.0953L61.3102 34.086ZM62.7802 22.326L62.8552 22.3354V22.326H62.7802ZM60.9322 21.99L60.8715 22.0355L60.8791 22.0431L60.9322 21.99ZM60.8482 21.612L60.922 21.6268L60.9227 21.621L60.8482 21.612ZM61.3102 17.79L61.2363 17.7752L61.2356 17.781L61.3102 17.79ZM61.4782 17.454L61.5312 17.5071V17.5071L61.4782 17.454ZM63.3262 17.244L63.3792 17.2971L63.3262 17.244ZM63.4102 17.076L63.3351 17.0665V17.076H63.4102ZM63.9982 12.414L64.0732 12.4235V12.414H63.9982ZM64.1662 12.078L64.2117 12.1387L64.2192 12.1311L64.1662 12.078ZM70.3822 12.078L70.3215 12.1235L70.3291 12.1311L70.3822 12.078ZM70.4662 12.414L70.3923 12.3992L70.3917 12.4046L70.4662 12.414ZM69.8782 17.076L69.8031 17.0665V17.076H69.8782ZM72.4822 17.454L72.4215 17.4995L72.4291 17.5071L72.4822 17.454ZM72.5662 17.79L72.4923 17.7752L72.4916 17.781L72.5662 17.79ZM72.0305 21.5973C72.0058 21.7212 71.9438 21.8342 71.8411 21.9369L71.9473 22.0431C72.0685 21.9218 72.1466 21.7828 72.1778 21.6267L72.0305 21.5973ZM71.8411 21.9369C71.7736 22.0043 71.6821 22.0409 71.5582 22.0409V22.1911C71.7142 22.1911 71.8467 22.1437 71.9473 22.0431L71.8411 21.9369ZM71.5582 22.0409H69.4582V22.1911H71.5582V22.0409ZM69.4582 22.0409C69.3766 22.0409 69.3016 22.0614 69.2476 22.1154C69.1935 22.1695 69.1731 22.2444 69.1731 22.326H69.3232C69.3232 22.2676 69.3378 22.2375 69.3537 22.2216C69.3697 22.2056 69.3997 22.1911 69.4582 22.1911V22.0409ZM69.1736 22.3169L68.0816 31.3049L68.2307 31.3231L69.3227 22.3351L69.1736 22.3169ZM68.0814 31.3072L68.0394 31.7692L68.1889 31.7828L68.2309 31.3208L68.0814 31.3072ZM68.0391 31.776C68.0391 32.2609 68.1528 32.6236 68.4007 32.8405L68.4996 32.7275C68.2995 32.5524 68.1892 32.2431 68.1892 31.776H68.0391ZM68.4085 32.8465C68.6794 33.027 69.048 33.0975 69.5048 33.0689L69.4955 32.9191C69.0563 32.9465 68.725 32.877 68.4918 32.7215L68.4085 32.8465ZM69.5002 33.0691H69.6682V32.9189H69.5002V33.0691ZM69.6682 33.0691C69.8088 33.0691 69.901 33.1071 69.9593 33.1707C70.0187 33.2356 70.0551 33.34 70.0551 33.498H70.2052C70.2052 33.32 70.1646 33.1724 70.07 33.0693C69.9743 32.9649 69.8355 32.9189 69.6682 32.9189V33.0691ZM70.0557 33.4886L69.4257 38.4866L69.5746 38.5054L70.2047 33.5074L70.0557 33.4886ZM69.4265 38.4813C69.4018 38.6052 69.3398 38.7182 69.2371 38.8209L69.3432 38.9271C69.4645 38.8058 69.5426 38.6668 69.5738 38.5107L69.4265 38.4813ZM69.2371 38.8209C69.1696 38.8883 69.0781 38.9249 68.9542 38.9249V39.0751C69.1102 39.0751 69.2427 39.0277 69.3432 38.9271L69.2371 38.8209ZM68.9542 38.9249H67.1062V39.0751H68.9542V38.9249ZM67.1062 38.9249C65.1789 38.9249 63.7233 38.6592 62.7312 38.1356L62.6611 38.2684C63.685 38.8088 65.1694 39.0751 67.1062 39.0751V38.9249ZM62.7334 38.1368C61.7846 37.5947 61.3012 36.5895 61.3012 35.094H61.1511C61.1511 36.6225 61.6477 37.6894 62.6589 38.2672L62.7334 38.1368ZM61.3012 35.094C61.3012 34.8749 61.3287 34.5427 61.3847 34.0953L61.2357 34.0767C61.1796 34.5253 61.1511 34.8651 61.1511 35.094H61.3012ZM61.3847 34.0953L62.8547 22.3353L62.7057 22.3167L61.2357 34.0767L61.3847 34.0953ZM62.8552 22.326C62.8552 22.2444 62.8348 22.1695 62.7807 22.1154C62.7267 22.0614 62.6517 22.0409 62.5702 22.0409V22.1911C62.6286 22.1911 62.6586 22.2056 62.6746 22.2216C62.6905 22.2375 62.7051 22.2676 62.7051 22.326H62.8552ZM62.5702 22.0409H61.2682V22.1911H62.5702V22.0409ZM61.2682 22.0409C61.1442 22.0409 61.0527 22.0043 60.9852 21.9369L60.8791 22.0431C60.9796 22.1437 61.1121 22.1911 61.2682 22.1911V22.0409ZM60.9922 21.945C60.9213 21.8504 60.8979 21.7463 60.9218 21.6267L60.7745 21.5973C60.7424 21.7577 60.775 21.9056 60.8721 22.035L60.9922 21.945ZM60.9227 21.621L61.3847 17.799L61.2356 17.781L60.7736 21.603L60.9227 21.621ZM61.3838 17.8047C61.4095 17.6763 61.4597 17.5786 61.5312 17.5071L61.4251 17.4009C61.3286 17.4973 61.2668 17.6237 61.2365 17.7753L61.3838 17.8047ZM61.5312 17.5071C61.6312 17.4072 61.7388 17.3611 61.8562 17.3611V17.2109C61.6936 17.2109 61.5491 17.2768 61.4251 17.4009L61.5312 17.5071ZM61.8562 17.3611H63.2002V17.2109H61.8562V17.3611ZM63.2002 17.3611C63.2677 17.3611 63.3322 17.3441 63.3792 17.2971L63.2731 17.1909C63.2641 17.1999 63.2446 17.2109 63.2002 17.2109V17.3611ZM63.3792 17.2971C63.4434 17.2329 63.4852 17.1589 63.4852 17.076H63.3351C63.3351 17.1051 63.3209 17.1431 63.2731 17.1909L63.3792 17.2971ZM63.4846 17.0854L64.0726 12.4234L63.9237 12.4046L63.3357 17.0666L63.4846 17.0854ZM64.0732 12.414C64.0732 12.2976 64.1181 12.2079 64.2112 12.1381L64.1211 12.0179C63.9902 12.1161 63.9231 12.2504 63.9231 12.414H64.0732ZM64.2192 12.1311C64.3192 12.0312 64.4268 11.9851 64.5442 11.9851V11.8349C64.3816 11.8349 64.2371 11.9008 64.1131 12.0249L64.2192 12.1311ZM64.5442 11.9851H70.0462V11.8349H64.5442V11.9851ZM70.0462 11.9851C70.1625 11.9851 70.2523 12.03 70.3221 12.123L70.4422 12.0329C70.344 11.902 70.2098 11.8349 70.0462 11.8349V11.9851ZM70.3291 12.1311C70.3916 12.1936 70.4167 12.2782 70.3925 12.3993L70.5398 12.4287C70.5716 12.2698 70.5407 12.1304 70.4352 12.0249L70.3291 12.1311ZM70.3917 12.4046L69.8037 17.0666L69.9526 17.0854L70.5406 12.4234L70.3917 12.4046ZM69.8031 17.076C69.8031 17.154 69.8184 17.2264 69.8615 17.2804C69.9073 17.3376 69.9736 17.3611 70.0462 17.3611V17.2109C70.0067 17.2109 69.9891 17.1994 69.9788 17.1866C69.966 17.1706 69.9532 17.138 69.9532 17.076H69.8031ZM70.0462 17.3611H72.1462V17.2109H70.0462V17.3611ZM72.1462 17.3611C72.2625 17.3611 72.3523 17.406 72.4221 17.499L72.5422 17.409C72.444 17.278 72.3098 17.2109 72.1462 17.2109V17.3611ZM72.4291 17.5071C72.4916 17.5696 72.5168 17.6542 72.4925 17.7753L72.6398 17.8047C72.6716 17.6458 72.6408 17.5064 72.5352 17.4009L72.4291 17.5071ZM72.4916 17.781L72.0296 21.603L72.1787 21.621L72.6407 17.799L72.4916 17.781ZM76.3478 37.74L76.2992 37.7973L76.3006 37.7984L76.3478 37.74ZM74.4998 32.07L74.4253 32.0608L74.4252 32.0617L74.4998 32.07ZM75.4658 24.216L75.3913 24.2066L75.3913 24.2068L75.4658 24.216ZM78.2798 18.924L78.2325 18.8657L78.232 18.8661L78.2798 18.924ZM90.0398 18.63L89.9905 18.6867L89.9919 18.6878L90.0398 18.63ZM91.9298 24.216L92.0043 24.2252L92.0044 24.2243L91.9298 24.216ZM90.9638 32.07L91.0383 32.0792L91.0383 32.0792L90.9638 32.07ZM88.1498 37.404L88.1026 37.3456L88.1498 37.404ZM83.6978 32.826L83.7531 32.8767L83.6978 32.826ZM84.2858 31.482L84.3601 31.4931L84.3604 31.4909L84.2858 31.482ZM85.0838 24.762L85.1584 24.7709L85.1584 24.7703L85.0838 24.762ZM85.1258 24.384L85.2009 24.3923V24.384H85.1258ZM84.7898 23.334L84.7311 23.381L84.7337 23.3839L84.7898 23.334ZM82.7318 23.418L82.7871 23.4687L82.7318 23.418ZM82.1858 24.762L82.2603 24.7713L82.2605 24.7695L82.1858 24.762ZM81.3458 31.482L81.2713 31.4727L81.2711 31.4745L81.3458 31.482ZM81.5978 32.826L81.5353 32.8676L81.5978 32.826ZM81.8498 39.2609C79.5084 39.2609 77.6933 38.7313 76.395 37.6816L76.3006 37.7984C77.6343 38.8767 79.4872 39.4111 81.8498 39.4111V39.2609ZM76.3964 37.6827C75.1277 36.6071 74.4909 35.1175 74.4909 33.204H74.3407C74.3407 35.1545 74.9919 36.6889 76.2992 37.7973L76.3964 37.6827ZM74.4909 33.204C74.4909 32.9563 74.5185 32.5817 74.5744 32.0783L74.4252 32.0617C74.3691 32.5663 74.3407 32.9477 74.3407 33.204H74.4909ZM74.5743 32.0792L75.5403 24.2252L75.3913 24.2068L74.4253 32.0608L74.5743 32.0792ZM75.5403 24.2254C75.8181 22.0308 76.7475 20.2848 78.3276 18.9819L78.232 18.8661C76.6201 20.1952 75.6735 21.9772 75.3913 24.2066L75.5403 24.2254ZM78.3271 18.9823C79.9348 17.6795 82.0169 17.0251 84.5798 17.0251V16.8749C81.9907 16.8749 79.8728 17.5365 78.2325 18.8657L78.3271 18.9823ZM84.5798 17.0251C86.9205 17.0251 88.7206 17.5824 89.9905 18.6867L90.0891 18.5733C88.783 17.4376 86.9431 16.8749 84.5798 16.8749V17.0251ZM89.9919 18.6878C91.2886 19.7638 91.9387 21.2395 91.9387 23.124H92.0889C92.0889 21.2005 91.423 19.6802 90.0877 18.5722L89.9919 18.6878ZM91.9387 23.124C91.9387 23.3435 91.9112 23.7039 91.8552 24.2077L92.0044 24.2243C92.0604 23.7201 92.0889 23.3525 92.0889 23.124H91.9387ZM91.8553 24.2068L90.8893 32.0608L91.0383 32.0792L92.0043 24.2252L91.8553 24.2068ZM90.8893 32.0608C90.6114 34.3119 89.6817 36.0713 88.1026 37.3456L88.197 37.4624C89.8099 36.1607 90.7562 34.3641 91.0383 32.0792L90.8893 32.0608ZM88.1026 37.3456C86.5233 38.6202 84.4414 39.2609 81.8498 39.2609V39.4111C84.4662 39.4111 86.5843 38.7638 88.197 37.4624L88.1026 37.3456ZM82.5638 33.4051C83.0333 33.4051 83.4312 33.2279 83.7531 32.8767L83.6425 32.7753C83.3484 33.0961 82.9903 33.2549 82.5638 33.2549V33.4051ZM83.7531 32.8767C84.0735 32.5273 84.2744 32.0643 84.36 31.4931L84.2115 31.4709C84.1292 32.0197 83.9381 32.4527 83.6425 32.7753L83.7531 32.8767ZM84.3604 31.4909L85.1584 24.7709L85.0092 24.7531L84.2112 31.4731L84.3604 31.4909ZM85.1584 24.7703L85.2004 24.3923L85.0512 24.3757L85.0092 24.7537L85.1584 24.7703ZM85.2009 24.384C85.2009 23.9238 85.0857 23.5538 84.8459 23.2841L84.7337 23.3839C84.9419 23.6181 85.0507 23.9482 85.0507 24.384H85.2009ZM84.8484 23.2871C84.6087 22.9875 84.2782 22.8389 83.8658 22.8389V22.9891C84.2374 22.9891 84.5229 23.1205 84.7312 23.3809L84.8484 23.2871ZM83.8658 22.8389C83.3963 22.8389 82.9984 23.0161 82.6765 23.3673L82.7871 23.4687C83.0812 23.1479 83.4393 22.9891 83.8658 22.9891V22.8389ZM82.6765 23.3673C82.3551 23.7178 82.1683 24.1823 82.1111 24.7545L82.2605 24.7695C82.3153 24.2217 82.4925 23.7902 82.7871 23.4687L82.6765 23.3673ZM82.1113 24.7527L81.2713 31.4727L81.4203 31.4913L82.2603 24.7713L82.1113 24.7527ZM81.2711 31.4745C81.214 32.0451 81.2985 32.5124 81.5353 32.8676L81.6603 32.7844C81.4491 32.4676 81.3656 32.0389 81.4205 31.4895L81.2711 31.4745ZM81.5353 32.8676C81.7739 33.2255 82.1199 33.4051 82.5638 33.4051V33.2549C82.1677 33.2549 81.8697 33.0985 81.6603 32.7844L81.5353 32.8676ZM111.689 29.55L111.614 29.5405V29.55H111.689ZM111.521 29.928L111.566 29.9887L111.574 29.9811L111.521 29.928ZM102.029 30.264L101.959 30.2361L101.955 30.246L101.954 30.2565L102.029 30.264ZM101.903 31.524L101.978 31.5315L101.903 31.524ZM102.113 32.868L102.048 32.9059L102.05 32.9096L102.113 32.868ZM104.717 31.902L104.787 31.9301L104.789 31.9218L104.717 31.902ZM105.305 31.44L105.309 31.3649H105.305V31.44ZM110.849 31.776L110.844 31.8511H110.849V31.776ZM111.185 31.944L111.124 31.9895L111.132 31.9971L111.185 31.944ZM111.269 32.322L111.343 32.3352L111.343 32.3343L111.269 32.322ZM108.413 37.614L108.459 37.673L108.459 37.6728L108.413 37.614ZM96.9048 37.74L96.8563 37.7973L96.857 37.7979L96.9048 37.74ZM95.0568 32.07L94.9823 32.0608L94.9822 32.0617L95.0568 32.07ZM96.0228 24.216L95.9484 24.2065L95.9483 24.2068L96.0228 24.216ZM98.8368 18.966L98.8846 19.0239L98.8847 19.0238L98.8368 18.966ZM110.513 18.63L110.464 18.6867L110.464 18.6873L110.513 18.63ZM112.361 24.216L112.435 24.2254L112.435 24.2243L112.361 24.216ZM103.289 23.46L103.344 23.5108L103.346 23.5085L103.289 23.46ZM102.743 24.762L102.817 24.7716L102.817 24.7699L102.743 24.762ZM102.575 26.064L102.645 26.0919L102.648 26.083L102.649 26.0736L102.575 26.064ZM105.389 26.064L105.459 26.0919L105.463 26.0819L105.464 26.0712L105.389 26.064ZM105.515 24.762L105.444 24.7383L105.441 24.7463L105.44 24.7548L105.515 24.762ZM105.221 23.334L105.159 23.3773L105.165 23.3839L105.221 23.334ZM111.614 29.55C111.614 29.6674 111.568 29.775 111.468 29.8749L111.574 29.9811C111.698 29.857 111.764 29.7126 111.764 29.55H111.614ZM111.476 29.8679C111.377 29.9422 111.267 29.9789 111.143 29.9789V30.1291C111.299 30.1291 111.441 30.0818 111.566 29.9881L111.476 29.8679ZM111.143 29.9789H102.281V30.1291H111.143V29.9789ZM102.281 29.9789C102.208 29.9789 102.142 30.0023 102.086 30.0488C102.031 30.0943 101.99 30.1587 101.959 30.2361L102.099 30.2919C102.124 30.2293 102.152 30.1887 102.182 30.1642C102.21 30.1407 102.242 30.1291 102.281 30.1291V29.9789ZM101.954 30.2565L101.828 31.5165L101.978 31.5315L102.104 30.2715L101.954 30.2565ZM101.828 31.5165C101.771 32.0855 101.841 32.5513 102.048 32.9058L102.178 32.8302C101.993 32.5127 101.922 32.0825 101.978 31.5315L101.828 31.5165ZM102.05 32.9096C102.289 33.2675 102.635 33.4471 103.079 33.4471V33.2969C102.683 33.2969 102.385 33.1405 102.175 32.8264L102.05 32.9096ZM103.079 33.4471C103.824 33.4471 104.39 32.9216 104.787 31.9299L104.647 31.8741C104.26 32.8424 103.733 33.2969 103.079 33.2969V33.4471ZM104.789 31.9218C104.828 31.7789 104.891 31.6791 104.973 31.6145C105.055 31.5502 105.164 31.5151 105.305 31.5151V31.3649C105.138 31.3649 104.995 31.4068 104.88 31.4965C104.767 31.5859 104.689 31.7171 104.644 31.8822L104.789 31.9218ZM105.3 31.5149L110.844 31.8509L110.853 31.7011L105.309 31.3651L105.3 31.5149ZM110.849 31.8511C110.965 31.8511 111.055 31.896 111.125 31.989L111.245 31.899C111.147 31.768 111.012 31.7009 110.849 31.7009V31.8511ZM111.132 31.9971C111.192 32.0573 111.221 32.1545 111.195 32.3097L111.343 32.3343C111.373 32.1535 111.346 31.9987 111.238 31.8909L111.132 31.9971ZM111.195 32.3088C110.777 34.6476 109.832 36.3933 108.366 37.5552L108.459 37.6728C109.961 36.4827 110.92 34.7004 111.343 32.3352L111.195 32.3088ZM108.366 37.555C106.928 38.6892 104.93 39.2609 102.365 39.2609V39.4111C104.951 39.4111 106.986 38.8348 108.459 37.673L108.366 37.555ZM102.365 39.2609C100.023 39.2609 98.2226 38.7312 96.9526 37.6821L96.857 37.7979C98.163 38.8768 100.002 39.4111 102.365 39.4111V39.2609ZM96.9534 37.6827C95.6847 36.6071 95.0479 35.1175 95.0479 33.204H94.8977C94.8977 35.1545 95.5489 36.6889 96.8563 37.7973L96.9534 37.6827ZM95.0479 33.204C95.0479 32.9563 95.0755 32.5817 95.1314 32.0783L94.9822 32.0617C94.9261 32.5663 94.8977 32.9477 94.8977 33.204H95.0479ZM95.1313 32.0792L96.0974 24.2252L95.9483 24.2068L94.9823 32.0608L95.1313 32.0792ZM96.0973 24.2255C96.375 22.0591 97.3043 20.327 98.8846 19.0239L98.7891 18.9081C97.1773 20.237 96.2306 22.0049 95.9484 24.2065L96.0973 24.2255ZM98.8847 19.0238C100.493 17.6932 102.561 17.0251 105.095 17.0251V16.8749C102.533 16.8749 100.429 17.5508 98.789 18.9082L98.8847 19.0238ZM105.095 17.0251C107.407 17.0251 109.193 17.5822 110.464 18.6867L110.562 18.5733C109.256 17.4378 107.43 16.8749 105.095 16.8749V17.0251ZM110.464 18.6873C111.733 19.7631 112.37 21.2389 112.37 23.124H112.52C112.52 21.2011 111.868 19.6809 110.561 18.5727L110.464 18.6873ZM112.37 23.124C112.37 23.3435 112.342 23.7039 112.286 24.2077L112.435 24.2243C112.491 23.7201 112.52 23.3525 112.52 23.124H112.37ZM112.286 24.2066L111.614 29.5406L111.763 29.5594L112.435 24.2254L112.286 24.2066ZM104.381 22.8389C103.936 22.8389 103.552 23.0332 103.232 23.4115L103.346 23.5085C103.642 23.1588 103.986 22.9891 104.381 22.9891V22.8389ZM103.233 23.4093C102.913 23.7591 102.726 24.209 102.668 24.7541L102.817 24.7699C102.872 24.251 103.049 23.8329 103.344 23.5107L103.233 23.4093ZM102.668 24.7524L102.5 26.0544L102.649 26.0736L102.817 24.7716L102.668 24.7524ZM102.505 26.0361C102.474 26.1135 102.462 26.2007 102.516 26.2684C102.567 26.3319 102.655 26.3491 102.743 26.3491V26.1989C102.663 26.1989 102.639 26.1811 102.633 26.1746C102.632 26.1723 102.619 26.1545 102.645 26.0919L102.505 26.0361ZM102.743 26.3491H105.137V26.1989H102.743V26.3491ZM105.137 26.3491C105.21 26.3491 105.276 26.3257 105.332 26.2792C105.386 26.2337 105.428 26.1693 105.459 26.0919L105.319 26.0361C105.294 26.0987 105.265 26.1393 105.236 26.1638C105.208 26.1873 105.176 26.1989 105.137 26.1989V26.3491ZM105.464 26.0712L105.59 24.7692L105.44 24.7548L105.314 26.0568L105.464 26.0712ZM105.586 24.7857C105.618 24.6893 105.632 24.5387 105.632 24.342H105.482C105.482 24.5373 105.467 24.6667 105.444 24.7383L105.586 24.7857ZM105.632 24.342C105.632 23.9083 105.516 23.553 105.277 23.2841L105.165 23.3839C105.374 23.619 105.482 23.9357 105.482 24.342H105.632ZM105.282 23.2909C105.071 22.9894 104.767 22.8389 104.381 22.8389V22.9891C104.722 22.9891 104.978 23.1186 105.159 23.3771L105.282 23.2909ZM118.645 14.472L118.699 14.4202L118.645 14.472ZM118.939 9.222L118.886 9.1689L118.885 9.16988L118.939 9.222ZM124.021 8.886L123.968 8.93911L123.969 8.94037L124.021 8.886ZM123.727 14.136L123.673 14.0838L123.672 14.0848L123.727 14.136ZM114.823 38.874L114.762 38.9195L114.77 38.9271L114.823 38.874ZM114.739 38.496L114.813 38.5108L114.813 38.5052L114.739 38.496ZM117.301 17.79L117.227 17.7752L117.226 17.7808L117.301 17.79ZM117.469 17.454L117.522 17.5071L117.522 17.5071L117.469 17.454ZM123.979 17.454L123.918 17.4995L123.926 17.5071L123.979 17.454ZM124.063 17.79L123.989 17.7752L123.988 17.7808L124.063 17.79ZM121.501 38.496L121.575 38.5108L121.575 38.5052L121.501 38.496ZM121.291 38.874L121.344 38.9271L121.291 38.874ZM120.871 15.2789C119.964 15.2789 119.243 14.9912 118.699 14.4202L118.59 14.5238C119.167 15.1288 119.929 15.4291 120.871 15.4291V15.2789ZM118.699 14.4202C118.154 13.8481 117.88 13.1116 117.88 12.204H117.73C117.73 13.1444 118.015 13.9199 118.59 14.5238L118.699 14.4202ZM117.88 12.204C117.88 11.0172 118.252 10.0426 118.993 9.27411L118.885 9.16988C118.114 9.96941 117.73 10.9828 117.73 12.204H117.88ZM118.992 9.27509C119.762 8.50533 120.694 8.12108 121.795 8.12108V7.97092C120.655 7.97092 119.684 8.37067 118.886 9.16891L118.992 9.27509ZM121.795 8.12108C122.702 8.12108 123.424 8.39552 123.968 8.93909L124.074 8.83291C123.497 8.25648 122.735 7.97092 121.795 7.97092V8.12108ZM123.969 8.94037C124.54 9.48419 124.828 10.2054 124.828 11.112H124.978C124.978 10.1706 124.678 9.40781 124.073 8.83163L123.969 8.94037ZM124.828 11.112C124.828 12.298 124.442 13.2868 123.673 14.0838L123.781 14.1882C124.579 13.3612 124.978 12.334 124.978 11.112H124.828ZM123.672 14.0848C122.931 14.881 121.999 15.2789 120.871 15.2789V15.4291C122.039 15.4291 123.011 15.015 123.782 14.1872L123.672 14.0848ZM115.159 38.9249C115.035 38.9249 114.943 38.8883 114.876 38.8209L114.77 38.9271C114.87 39.0277 115.003 39.0751 115.159 39.0751V38.9249ZM114.883 38.829C114.812 38.7344 114.788 38.6303 114.812 38.5107L114.665 38.4813C114.633 38.6417 114.666 38.7896 114.763 38.919L114.883 38.829ZM114.813 38.5052L117.375 17.7992L117.226 17.7808L114.664 38.4868L114.813 38.5052ZM117.374 17.8047C117.4 17.6763 117.45 17.5786 117.522 17.5071L117.416 17.4009C117.319 17.4973 117.257 17.6237 117.227 17.7753L117.374 17.8047ZM117.522 17.5071C117.622 17.4072 117.729 17.3611 117.847 17.3611V17.2109C117.684 17.2109 117.54 17.2768 117.416 17.4009L117.522 17.5071ZM117.847 17.3611H123.643V17.2109H117.847V17.3611ZM123.643 17.3611C123.759 17.3611 123.849 17.406 123.919 17.499L124.039 17.409C123.941 17.278 123.806 17.2109 123.643 17.2109V17.3611ZM123.926 17.5071C123.988 17.5696 124.013 17.6542 123.989 17.7753L124.136 17.8047C124.168 17.6458 124.137 17.5064 124.032 17.4009L123.926 17.5071ZM123.988 17.7808L121.426 38.4868L121.575 38.5052L124.137 17.7992L123.988 17.7808ZM121.427 38.4813C121.402 38.6052 121.34 38.7182 121.238 38.8209L121.344 38.9271C121.465 38.8058 121.543 38.6668 121.574 38.5107L121.427 38.4813ZM121.238 38.8209C121.17 38.8883 121.079 38.9249 120.955 38.9249V39.0751C121.111 39.0751 121.243 39.0277 121.344 38.9271L121.238 38.8209ZM120.955 38.9249H115.159V39.0751H120.955V38.9249ZM127.163 38.37L127.109 38.4218L127.11 38.4231L127.163 38.37ZM127.499 33.12L127.552 33.1731L127.499 33.12ZM132.623 32.784L132.57 32.8371L132.623 32.784ZM132.287 38.034L132.233 37.9818L132.287 38.034ZM129.473 39.1769C128.538 39.1769 127.788 38.8888 127.216 38.3169L127.11 38.4231C127.714 39.0272 128.504 39.3271 129.473 39.3271V39.1769ZM127.218 38.3182C126.673 37.7461 126.398 37.0096 126.398 36.102H126.248C126.248 37.0424 126.534 37.8179 127.109 38.4218L127.218 38.3182ZM126.398 36.102C126.398 34.916 126.784 33.9417 127.552 33.1731L127.446 33.0669C126.647 33.8663 126.248 34.88 126.248 36.102H126.398ZM127.552 33.1731C128.322 32.4033 129.255 32.0191 130.355 32.0191V31.8689C129.216 31.8689 128.244 32.2687 127.446 33.0669L127.552 33.1731ZM130.355 32.0191C131.292 32.0191 132.027 32.2939 132.57 32.8371L132.676 32.7309C132.099 32.1541 131.323 31.8689 130.355 31.8689V32.0191ZM132.57 32.8371C133.113 33.3802 133.388 34.1156 133.388 35.052H133.538C133.538 34.0844 133.253 33.3078 132.676 32.7309L132.57 32.8371ZM133.388 35.052C133.388 36.2094 133.003 37.1845 132.233 37.9818L132.341 38.0862C133.139 37.2595 133.538 36.2466 133.538 35.052H133.388ZM132.233 37.9818C131.463 38.7797 130.544 39.1769 129.473 39.1769V39.3271C130.586 39.3271 131.544 38.9123 132.341 38.0862L132.233 37.9818ZM139.955 37.74L139.906 37.7973L139.907 37.7979L139.955 37.74ZM138.107 32.07L138.032 32.0608L138.032 32.0617L138.107 32.07ZM139.073 24.216L138.998 24.2065L138.998 24.2068L139.073 24.216ZM141.887 18.966L141.935 19.0239L141.935 19.0238L141.887 18.966ZM153.563 18.63L153.514 18.6867L153.514 18.6873L153.563 18.63ZM155.411 24.09L155.336 24.0817L155.336 24.0832L155.411 24.09ZM155.327 25.014L155.401 25.0288L155.402 25.0208L155.327 25.014ZM154.781 25.518V25.4428L154.778 25.443L154.781 25.518ZM148.943 25.77V25.8451L148.946 25.845L148.943 25.77ZM148.523 25.266L148.448 25.2561L148.448 25.2598L148.523 25.266ZM148.607 24.636L148.681 24.6459L148.681 24.6448L148.607 24.636ZM148.355 23.418L148.292 23.4596L148.355 23.418ZM146.339 23.46L146.394 23.5108L146.396 23.5085L146.339 23.46ZM145.793 24.762L145.867 24.7713L145.868 24.7699L145.793 24.762ZM144.953 31.524L144.878 31.5147L144.878 31.5165L144.953 31.524ZM145.163 32.868L145.098 32.9059L145.1 32.9096L145.163 32.868ZM147.179 32.868L147.123 32.8172L147.121 32.8199L147.179 32.868ZM147.725 31.608L147.65 31.5981L147.65 31.5997L147.725 31.608ZM147.809 30.978L147.735 30.9632L147.734 30.9681L147.809 30.978ZM147.977 30.642L147.924 30.5889L147.977 30.642ZM148.355 30.474L148.355 30.3989H148.355V30.474ZM154.151 30.516L154.15 30.5911H154.151V30.516ZM154.487 30.684L154.426 30.7295L154.434 30.7371L154.487 30.684ZM154.571 31.02L154.497 31.0052L154.496 31.0117L154.571 31.02ZM154.445 32.154L154.519 32.1633L154.519 32.1623L154.445 32.154ZM151.631 37.446L151.678 37.5045L151.678 37.5044L151.631 37.446ZM145.415 39.2609C143.073 39.2609 141.273 38.7312 140.003 37.6821L139.907 37.7979C141.213 38.8768 143.052 39.4111 145.415 39.4111V39.2609ZM140.003 37.6827C138.735 36.6071 138.098 35.1175 138.098 33.204H137.948C137.948 35.1545 138.599 36.6889 139.906 37.7973L140.003 37.6827ZM138.098 33.204C138.098 32.9563 138.126 32.5817 138.181 32.0783L138.032 32.0617C137.976 32.5663 137.948 32.9477 137.948 33.204H138.098ZM138.181 32.0792L139.147 24.2252L138.998 24.2068L138.032 32.0608L138.181 32.0792ZM139.147 24.2255C139.425 22.0591 140.354 20.327 141.935 19.0239L141.839 18.9081C140.227 20.237 139.281 22.0049 138.998 24.2065L139.147 24.2255ZM141.935 19.0238C143.543 17.6932 145.611 17.0251 148.145 17.0251V16.8749C145.583 16.8749 143.479 17.5508 141.839 18.9082L141.935 19.0238ZM148.145 17.0251C150.457 17.0251 152.243 17.5822 153.514 18.6867L153.612 18.5733C152.306 17.4378 150.48 16.8749 148.145 16.8749V17.0251ZM153.514 18.6873C154.784 19.7635 155.42 21.2117 155.42 23.04H155.57C155.57 21.1723 154.918 19.6805 153.611 18.5727L153.514 18.6873ZM155.42 23.04C155.42 23.2313 155.392 23.5775 155.336 24.0817L155.485 24.0983C155.541 23.5945 155.57 23.2407 155.57 23.04H155.42ZM155.336 24.0832L155.252 25.0072L155.402 25.0208L155.486 24.0968L155.336 24.0832ZM155.253 24.9993C155.228 25.1232 155.166 25.2362 155.064 25.3389L155.17 25.4451C155.291 25.3238 155.369 25.1848 155.4 25.0287L155.253 24.9993ZM155.064 25.3389C154.996 25.4063 154.905 25.4429 154.781 25.4429V25.5931C154.937 25.5931 155.069 25.5457 155.17 25.4451L155.064 25.3389ZM154.778 25.443L148.94 25.695L148.946 25.845L154.784 25.593L154.778 25.443ZM148.943 25.6949C148.802 25.6949 148.715 25.6567 148.665 25.5959C148.613 25.5335 148.584 25.431 148.598 25.2722L148.448 25.2598C148.433 25.437 148.461 25.5865 148.549 25.6921C148.639 25.7993 148.776 25.8451 148.943 25.8451V25.6949ZM148.597 25.2759L148.681 24.6459L148.532 24.6261L148.448 25.2561L148.597 25.2759ZM148.681 24.6448C148.739 24.1545 148.653 23.7299 148.417 23.3764L148.292 23.4596C148.505 23.7781 148.587 24.1655 148.532 24.6272L148.681 24.6448ZM148.417 23.3764C148.18 23.0202 147.849 22.8389 147.431 22.8389V22.9891C147.797 22.9891 148.082 23.1438 148.292 23.4596L148.417 23.3764ZM147.431 22.8389C146.986 22.8389 146.602 23.0332 146.282 23.4115L146.396 23.5085C146.692 23.1588 147.036 22.9891 147.431 22.9891V22.8389ZM146.283 23.4093C145.963 23.7591 145.776 24.209 145.718 24.7541L145.868 24.7699C145.922 24.251 146.099 23.8329 146.394 23.5107L146.283 23.4093ZM145.718 24.7527L144.878 31.5147L145.027 31.5333L145.867 24.7713L145.718 24.7527ZM144.878 31.5165C144.821 32.0855 144.891 32.5513 145.098 32.9058L145.228 32.8302C145.043 32.5127 144.972 32.0825 145.028 31.5315L144.878 31.5165ZM145.1 32.9096C145.339 33.2675 145.685 33.4471 146.129 33.4471V33.2969C145.733 33.2969 145.435 33.1405 145.225 32.8264L145.1 32.9096ZM146.129 33.4471C146.572 33.4471 146.943 33.2684 147.237 32.9161L147.121 32.8199C146.855 33.1396 146.526 33.2969 146.129 33.2969V33.4471ZM147.234 32.9187C147.554 32.5697 147.742 32.1343 147.799 31.6163L147.65 31.5997C147.596 32.0897 147.42 32.4943 147.123 32.8173L147.234 32.9187ZM147.799 31.6179L147.883 30.9879L147.734 30.9681L147.65 31.5981L147.799 31.6179ZM147.882 30.9927C147.908 30.8643 147.958 30.7667 148.03 30.6951L147.924 30.5889C147.827 30.6853 147.766 30.8117 147.735 30.9633L147.882 30.9927ZM148.03 30.6951C148.13 30.5952 148.237 30.5491 148.355 30.5491V30.3989C148.192 30.3989 148.048 30.4648 147.924 30.5889L148.03 30.6951ZM148.354 30.5491L154.15 30.5911L154.151 30.4409L148.355 30.3989L148.354 30.5491ZM154.151 30.5911C154.267 30.5911 154.357 30.636 154.427 30.729L154.547 30.639C154.449 30.508 154.314 30.4409 154.151 30.4409V30.5911ZM154.434 30.7371C154.496 30.7996 154.521 30.8842 154.497 31.0053L154.644 31.0347C154.676 30.8758 154.645 30.7364 154.54 30.6309L154.434 30.7371ZM154.496 31.0117L154.37 32.1457L154.519 32.1623L154.645 31.0283L154.496 31.0117ZM154.37 32.1447C154.092 34.3675 153.163 36.1131 151.584 37.3876L151.678 37.5044C153.291 36.2029 154.237 34.4205 154.519 32.1633L154.37 32.1447ZM151.584 37.3875C150.033 38.6341 147.979 39.2609 145.415 39.2609V39.4111C148.003 39.4111 150.093 38.7779 151.678 37.5045L151.584 37.3875ZM160.184 37.74L160.135 37.7973L160.137 37.7984L160.184 37.74ZM158.336 32.07L158.261 32.0608L158.261 32.0617L158.336 32.07ZM159.302 24.216L159.227 24.2066L159.227 24.2068L159.302 24.216ZM162.116 18.924L162.068 18.8657L162.068 18.8661L162.116 18.924ZM173.876 18.63L173.826 18.6867L173.828 18.6878L173.876 18.63ZM175.766 24.216L175.84 24.2252L175.84 24.2243L175.766 24.216ZM174.8 32.07L174.874 32.0792L174.874 32.0792L174.8 32.07ZM171.986 37.404L171.939 37.3456L171.986 37.404ZM167.534 32.826L167.589 32.8767L167.534 32.826ZM168.122 31.482L168.196 31.4931L168.196 31.4909L168.122 31.482ZM168.92 24.762L168.994 24.7709L168.994 24.7703L168.92 24.762ZM168.962 24.384L169.037 24.3923V24.384H168.962ZM168.626 23.334L168.567 23.381L168.57 23.3839L168.626 23.334ZM166.568 23.418L166.623 23.4687L166.568 23.418ZM166.022 24.762L166.096 24.7713L166.096 24.7695L166.022 24.762ZM165.182 31.482L165.107 31.4727L165.107 31.4745L165.182 31.482ZM165.434 32.826L165.371 32.8676L165.434 32.826ZM165.686 39.2609C163.344 39.2609 161.529 38.7313 160.231 37.6816L160.137 37.7984C161.47 38.8767 163.323 39.4111 165.686 39.4111V39.2609ZM160.232 37.6827C158.964 36.6071 158.327 35.1175 158.327 33.204H158.177C158.177 35.1545 158.828 36.6889 160.135 37.7973L160.232 37.6827ZM158.327 33.204C158.327 32.9563 158.354 32.5817 158.41 32.0783L158.261 32.0617C158.205 32.5663 158.177 32.9477 158.177 33.204H158.327ZM158.41 32.0792L159.376 24.2252L159.227 24.2068L158.261 32.0608L158.41 32.0792ZM159.376 24.2254C159.654 22.0308 160.583 20.2848 162.163 18.9819L162.068 18.8661C160.456 20.1952 159.509 21.9772 159.227 24.2066L159.376 24.2254ZM162.163 18.9823C163.771 17.6795 165.853 17.0251 168.416 17.0251V16.8749C165.827 16.8749 163.709 17.5365 162.068 18.8657L162.163 18.9823ZM168.416 17.0251C170.756 17.0251 172.557 17.5824 173.826 18.6867L173.925 18.5733C172.619 17.4376 170.779 16.8749 168.416 16.8749V17.0251ZM173.828 18.6878C175.125 19.7638 175.775 21.2395 175.775 23.124H175.925C175.925 21.2005 175.259 19.6802 173.924 18.5722L173.828 18.6878ZM175.775 23.124C175.775 23.3435 175.747 23.7039 175.691 24.2077L175.84 24.2243C175.896 23.7201 175.925 23.3525 175.925 23.124H175.775ZM175.691 24.2068L174.725 32.0608L174.874 32.0792L175.84 24.2252L175.691 24.2068ZM174.725 32.0608C174.447 34.3119 173.518 36.0713 171.939 37.3456L172.033 37.4624C173.646 36.1607 174.592 34.3641 174.874 32.0792L174.725 32.0608ZM171.939 37.3456C170.359 38.6202 168.277 39.2609 165.686 39.2609V39.4111C168.302 39.4111 170.42 38.7638 172.033 37.4624L171.939 37.3456ZM166.4 33.4051C166.869 33.4051 167.267 33.2279 167.589 32.8767L167.478 32.7753C167.184 33.0961 166.826 33.2549 166.4 33.2549V33.4051ZM167.589 32.8767C167.909 32.5273 168.11 32.0643 168.196 31.4931L168.047 31.4709C167.965 32.0197 167.774 32.4527 167.478 32.7753L167.589 32.8767ZM168.196 31.4909L168.994 24.7709L168.845 24.7531L168.047 31.4731L168.196 31.4909ZM168.994 24.7703L169.036 24.3923L168.887 24.3757L168.845 24.7537L168.994 24.7703ZM169.037 24.384C169.037 23.9238 168.922 23.5538 168.682 23.2841L168.57 23.3839C168.778 23.6181 168.887 23.9482 168.887 24.384H169.037ZM168.684 23.2871C168.445 22.9875 168.114 22.8389 167.702 22.8389V22.9891C168.073 22.9891 168.359 23.1205 168.567 23.3809L168.684 23.2871ZM167.702 22.8389C167.232 22.8389 166.834 23.0161 166.512 23.3673L166.623 23.4687C166.917 23.1479 167.275 22.9891 167.702 22.9891V22.8389ZM166.512 23.3673C166.191 23.7178 166.004 24.1823 165.947 24.7545L166.096 24.7695C166.151 24.2217 166.328 23.7902 166.623 23.4687L166.512 23.3673ZM165.947 24.7527L165.107 31.4727L165.256 31.4913L166.096 24.7713L165.947 24.7527ZM165.107 31.4745C165.05 32.0451 165.134 32.5124 165.371 32.8676L165.496 32.7844C165.285 32.4676 165.201 32.0389 165.256 31.4895L165.107 31.4745ZM165.371 32.8676C165.61 33.2255 165.956 33.4051 166.4 33.4051V33.2549C166.004 33.2549 165.706 33.0985 165.496 32.7844L165.371 32.8676ZM205.731 24.384L205.656 24.3743L205.656 24.3747L205.731 24.384ZM203.967 38.496L204.041 38.5108L204.041 38.5053L203.967 38.496ZM203.757 38.874L203.81 38.9271L203.757 38.874ZM197.289 38.874L197.228 38.9195L197.236 38.9271L197.289 38.874ZM197.205 38.496L197.279 38.5108L197.279 38.5052L197.205 38.496ZM198.885 24.888L198.811 24.8697L198.81 24.8788L198.885 24.888ZM198.633 23.292L198.574 23.3381L198.633 23.292ZM196.197 24.846L196.122 24.8363L196.122 24.8368L196.197 24.846ZM194.517 38.496L194.591 38.5108L194.591 38.5052L194.517 38.496ZM194.307 38.874L194.36 38.9271L194.307 38.874ZM187.839 38.874L187.778 38.9195L187.786 38.9271L187.839 38.874ZM187.755 38.496L187.829 38.5108L187.829 38.5052L187.755 38.496ZM189.435 24.888L189.361 24.8697L189.36 24.8788L189.435 24.888ZM187.293 23.418L187.235 23.3699L187.293 23.418ZM186.747 24.846L186.672 24.8359L186.672 24.8368L186.747 24.846ZM185.067 38.496L185.141 38.5108L185.141 38.5052L185.067 38.496ZM184.857 38.874L184.91 38.9271L184.857 38.874ZM178.389 38.874L178.328 38.9195L178.336 38.9271L178.389 38.874ZM178.305 38.496L178.379 38.5108L178.379 38.5052L178.305 38.496ZM180.867 17.79L180.793 17.7752L180.792 17.7808L180.867 17.79ZM181.035 17.454L181.088 17.5071V17.5071L181.035 17.454ZM187.545 17.454L187.484 17.4995L187.492 17.5071L187.545 17.454ZM187.629 17.79L187.555 17.7752L187.554 17.7825L187.629 17.79ZM187.587 18.21L187.658 18.2337L187.661 18.2258L187.661 18.2175L187.587 18.21ZM187.629 18.378L187.662 18.3108L187.629 18.378ZM187.797 18.336L187.748 18.2785L187.744 18.2829L187.797 18.336ZM195.819 19.428H195.894V19.4122L195.887 19.3977L195.819 19.428ZM196.239 19.218L196.18 19.1711L196.176 19.1764L196.239 19.218ZM200.943 17.0251C202.566 17.0251 203.771 17.4895 204.572 18.4064C205.374 19.3252 205.782 20.7113 205.782 22.578H205.932C205.932 20.6927 205.521 19.2648 204.685 18.3076C203.847 17.3485 202.595 16.8749 200.943 16.8749V17.0251ZM205.782 22.578C205.782 23.1343 205.74 23.733 205.656 24.3743L205.805 24.3937C205.89 23.747 205.932 23.1417 205.932 22.578H205.782ZM205.656 24.3747L203.892 38.4867L204.041 38.5053L205.805 24.3933L205.656 24.3747ZM203.893 38.4813C203.868 38.6052 203.806 38.7182 203.704 38.8209L203.81 38.9271C203.931 38.8058 204.009 38.6668 204.04 38.5107L203.893 38.4813ZM203.704 38.8209C203.636 38.8883 203.545 38.9249 203.421 38.9249V39.0751C203.577 39.0751 203.709 39.0277 203.81 38.9271L203.704 38.8209ZM203.421 38.9249H197.625V39.0751H203.421V38.9249ZM197.625 38.9249C197.501 38.9249 197.409 38.8883 197.342 38.8209L197.236 38.9271C197.336 39.0277 197.469 39.0751 197.625 39.0751V38.9249ZM197.349 38.829C197.278 38.7344 197.254 38.6303 197.278 38.5107L197.131 38.4813C197.099 38.6417 197.132 38.7896 197.229 38.919L197.349 38.829ZM197.279 38.5052L198.959 24.8972L198.81 24.8788L197.13 38.4868L197.279 38.5052ZM198.958 24.9062C198.988 24.785 199.002 24.6095 199.002 24.384H198.852C198.852 24.6065 198.838 24.767 198.812 24.8698L198.958 24.9062ZM199.002 24.384C199.002 23.8991 198.902 23.5162 198.692 23.2459L198.574 23.3381C198.755 23.5718 198.852 23.9169 198.852 24.384H199.002ZM198.692 23.2459C198.481 22.9745 198.193 22.8389 197.835 22.8389V22.9891C198.149 22.9891 198.393 23.1055 198.574 23.3381L198.692 23.2459ZM197.835 22.8389C197.353 22.8389 196.964 23.0079 196.675 23.3484C196.389 23.6859 196.207 24.1851 196.122 24.8363L196.271 24.8557C196.354 24.2189 196.53 23.7521 196.79 23.4456C197.047 23.1421 197.392 22.9891 197.835 22.9891V22.8389ZM196.122 24.8368L194.442 38.4868L194.591 38.5052L196.271 24.8552L196.122 24.8368ZM194.443 38.4813C194.418 38.6052 194.356 38.7182 194.254 38.8209L194.36 38.9271C194.481 38.8058 194.559 38.6668 194.59 38.5107L194.443 38.4813ZM194.254 38.8209C194.186 38.8883 194.095 38.9249 193.971 38.9249V39.0751C194.127 39.0751 194.259 39.0277 194.36 38.9271L194.254 38.8209ZM193.971 38.9249H188.175V39.0751H193.971V38.9249ZM188.175 38.9249C188.051 38.9249 187.959 38.8883 187.892 38.8209L187.786 38.9271C187.886 39.0277 188.019 39.0751 188.175 39.0751V38.9249ZM187.899 38.829C187.828 38.7344 187.804 38.6303 187.828 38.5107L187.681 38.4813C187.649 38.6417 187.682 38.7896 187.779 38.919L187.899 38.829ZM187.829 38.5052L189.509 24.8972L189.36 24.8788L187.68 38.4868L187.829 38.5052ZM189.508 24.9062C189.538 24.785 189.552 24.6095 189.552 24.384H189.402C189.402 24.6065 189.388 24.767 189.362 24.8698L189.508 24.9062ZM189.552 24.384C189.552 23.8991 189.452 23.5162 189.242 23.2459L189.124 23.3381C189.305 23.5718 189.402 23.9169 189.402 24.384H189.552ZM189.242 23.2459C189.031 22.9745 188.743 22.8389 188.385 22.8389V22.9891C188.699 22.9891 188.943 23.1055 189.124 23.3381L189.242 23.2459ZM188.385 22.8389C187.915 22.8389 187.53 23.0163 187.235 23.3699L187.35 23.4661C187.616 23.1477 187.958 22.9891 188.385 22.9891V22.8389ZM187.235 23.3699C186.943 23.7204 186.758 24.2115 186.672 24.8359L186.821 24.8561C186.904 24.2485 187.083 23.7876 187.35 23.4661L187.235 23.3699ZM186.672 24.8368L184.992 38.4868L185.141 38.5052L186.821 24.8552L186.672 24.8368ZM184.993 38.4813C184.968 38.6052 184.906 38.7182 184.804 38.8209L184.91 38.9271C185.031 38.8058 185.109 38.6668 185.14 38.5107L184.993 38.4813ZM184.804 38.8209C184.736 38.8883 184.645 38.9249 184.521 38.9249V39.0751C184.677 39.0751 184.809 39.0277 184.91 38.9271L184.804 38.8209ZM184.521 38.9249H178.725V39.0751H184.521V38.9249ZM178.725 38.9249C178.601 38.9249 178.509 38.8883 178.442 38.8209L178.336 38.9271C178.436 39.0277 178.569 39.0751 178.725 39.0751V38.9249ZM178.449 38.829C178.378 38.7344 178.354 38.6303 178.378 38.5107L178.231 38.4813C178.199 38.6417 178.232 38.7896 178.329 38.919L178.449 38.829ZM178.379 38.5052L180.941 17.7992L180.792 17.7808L178.23 38.4868L178.379 38.5052ZM180.94 17.8047C180.966 17.6763 181.016 17.5786 181.088 17.5071L180.982 17.4009C180.885 17.4973 180.823 17.6237 180.793 17.7753L180.94 17.8047ZM181.088 17.5071C181.188 17.4072 181.295 17.3611 181.413 17.3611V17.2109C181.25 17.2109 181.106 17.2768 180.982 17.4009L181.088 17.5071ZM181.413 17.3611H187.209V17.2109H181.413V17.3611ZM187.209 17.3611C187.325 17.3611 187.415 17.406 187.485 17.499L187.605 17.409C187.507 17.278 187.372 17.2109 187.209 17.2109V17.3611ZM187.492 17.5071C187.554 17.5696 187.579 17.6542 187.555 17.7753L187.702 17.8047C187.734 17.6458 187.703 17.5064 187.598 17.4009L187.492 17.5071ZM187.554 17.7825L187.512 18.2025L187.661 18.2175L187.703 17.7975L187.554 17.7825ZM187.516 18.1863C187.499 18.2351 187.492 18.2858 187.503 18.3332C187.516 18.3844 187.549 18.4223 187.595 18.4452L187.662 18.3108C187.652 18.3057 187.65 18.3016 187.649 18.2968C187.647 18.2882 187.646 18.2689 187.658 18.2337L187.516 18.1863ZM187.595 18.4452C187.638 18.4664 187.684 18.4731 187.731 18.4613C187.776 18.45 187.816 18.4233 187.85 18.3891L187.744 18.2829C187.722 18.3047 187.705 18.313 187.695 18.3157C187.685 18.3179 187.676 18.3176 187.662 18.3108L187.595 18.4452ZM187.845 18.3933C188.924 17.4803 190.139 17.0251 191.493 17.0251V16.8749C190.102 16.8749 188.853 17.3437 187.748 18.2787L187.845 18.3933ZM191.493 17.0251C192.561 17.0251 193.447 17.2298 194.154 17.6346C194.86 18.039 195.392 18.6456 195.75 19.4583L195.887 19.3977C195.518 18.5584 194.965 17.926 194.229 17.5043C193.493 17.0832 192.58 16.8749 191.493 16.8749V17.0251ZM195.744 19.428C195.744 19.4481 195.749 19.4691 195.762 19.488C195.774 19.5065 195.79 19.5187 195.806 19.5267C195.836 19.5415 195.871 19.5451 195.903 19.5451V19.3949C195.892 19.3949 195.884 19.3942 195.878 19.3933C195.873 19.3924 195.872 19.3915 195.873 19.3923C195.875 19.3933 195.881 19.3968 195.886 19.4047C195.892 19.4131 195.894 19.4219 195.894 19.428H195.744ZM195.903 19.5451C196.055 19.5451 196.186 19.4322 196.301 19.2596L196.176 19.1764C196.067 19.3398 195.975 19.3949 195.903 19.3949V19.5451ZM196.298 19.2648C197.487 17.7706 199.034 17.0251 200.943 17.0251V16.8749C198.988 16.8749 197.398 17.6413 196.18 19.1712L196.298 19.2648Z" fill="white" fill-opacity="0.11"/>
</g>
<defs>
<filter id="filter0_dddd_221_100" x="0.123535" y="2.79031" width="212.733" height="46.5489" filterUnits="userSpaceOnUse" color-interpolation-filters="sRGB">
<feFlood flood-opacity="0" result="BackgroundImageFix"/>
<feColorMatrix in="SourceAlpha" type="matrix" values="0 0 0 0 0 0 0 0 0 0 0 0 0 0 0 0 0 0 127 0" result="hardAlpha"/>
<feOffset dx="-1.50163" dy="-0.750816"/>
<feGaussianBlur stdDeviation="2.25245"/>
<feComposite in2="hardAlpha" operator="out"/>
<feColorMatrix type="matrix" values="0 0 0 0 1 0 0 0 0 0.709804 0 0 0 0 0.992157 0 0 0 1 0"/>
<feBlend mode="normal" in2="BackgroundImageFix" result="effect1_dropShadow_221_100"/>
<feColorMatrix in="SourceAlpha" type="matrix" values="0 0 0 0 0 0 0 0 0 0 0 0 0 0 0 0 0 0 127 0" result="hardAlpha"/>
<feOffset dx="2.25245"/>
<feGaussianBlur stdDeviation="2.25245"/>
<feComposite in2="hardAlpha" operator="out"/>
<feColorMatrix type="matrix" values="0 0 0 0 0.29908 0 0 0 0 0.592587 0 0 0 0 0.430386 0 0 0 1 0"/>
<feBlend mode="normal" in2="effect1_dropShadow_221_100" result="effect2_dropShadow_221_100"/>
<feColorMatrix in="SourceAlpha" type="matrix" values="0 0 0 0 0 0 0 0 0 0 0 0 0 0 0 0 0 0 127 0" result="hardAlpha"/>
<feOffset dy="3.00327"/>
<feGaussianBlur stdDeviation="3.5"/>
<feComposite in2="hardAlpha" operator="out"/>
<feColorMatrix type="matrix" values="0 0 0 0 0.188235 0 0 0 0 0.188235 0 0 0 0 0.188235 0 0 0 0.5 0"/>
<feBlend mode="normal" in2="effect2_dropShadow_221_100" result="effect3_dropShadow_221_100"/>
<feColorMatrix in="SourceAlpha" type="matrix" values="0 0 0 0 0 0 0 0 0 0 0 0 0 0 0 0 0 0 127 0" result="hardAlpha"/>
<feOffset dy="3.00327"/>
<feGaussianBlur stdDeviation="3.5"/>
<feComposite in2="hardAlpha" operator="out"/>
<feColorMatrix type="matrix" values="0 0 0 0 0.835174 0 0 0 0 0.77316 0 0 0 0 0.77316 0 0 0 0.2 0"/>
<feBlend mode="normal" in2="effect3_dropShadow_221_100" result="effect4_dropShadow_221_100"/>
<feBlend mode="normal" in="SourceGraphic" in2="effect4_dropShadow_221_100" result="shape"/>
</filter>
<linearGradient id="paint0_linear_221_100" x1="-38.8399" y1="-7.85834" x2="237.239" y2="38.0353" gradientUnits="userSpaceOnUse">
<stop offset="0.0708332" stop-color="#54D259"/>
<stop offset="0.341604" stop-color="#4ED6BC"/>
<stop offset="0.466752" stop-color="#4DD8C9"/>
<stop offset="0.672552" stop-color="#81E8CB"/>
<stop offset="0.810417" stop-color="#73D3BB"/>
<stop offset="0.946585" stop-color="#2C9A80"/>
</linearGradient>
</defs>
</svg>
