<svg width="44" height="44" viewBox="0 0 44 44" fill="none" xmlns="http://www.w3.org/2000/svg">
<rect width="44" height="44" rx="6" fill="white" fill-opacity="0.1"/>
<path d="M27.5 22C27.5 22.552 27.052 23 26.5 23C25.948 23 25.5 22.552 25.5 22C25.5 21.448 25.948 21 26.5 21C27.052 21 27.5 21.448 27.5 22ZM22 21C21.448 21 21 21.448 21 22C21 22.552 21.448 23 22 23C22.552 23 23 22.552 23 22C23 21.448 22.552 21 22 21ZM17.5 21C16.948 21 16.5 21.448 16.5 22C16.5 22.552 16.948 23 17.5 23C18.052 23 18.5 22.552 18.5 22C18.5 21.448 18.052 21 17.5 21ZM31.75 22C31.75 27.376 27.376 31.75 22 31.75C16.624 31.75 12.25 27.376 12.25 22C12.25 16.624 16.624 12.25 22 12.25C27.376 12.25 31.75 16.624 31.75 22ZM30.25 22C30.25 17.451 26.549 13.75 22 13.75C17.451 13.75 13.75 17.451 13.75 22C13.75 26.549 17.451 30.25 22 30.25C26.549 30.25 30.25 26.549 30.25 22Z" fill="#81E8CB"/>
</svg>
