<svg width="44" height="44" viewBox="0 0 44 44" fill="none" xmlns="http://www.w3.org/2000/svg">
<rect width="44" height="44" rx="6" fill="white" fill-opacity="0.1"/>
<path d="M24 12.25H20C17.381 12.25 15.25 14.381 15.25 17V27C15.25 29.619 17.381 31.75 20 31.75H24C26.619 31.75 28.75 29.619 28.75 27V17C28.75 14.381 26.619 12.25 24 12.25ZM27.25 27C27.25 28.792 25.792 30.25 24 30.25H20C18.208 30.25 16.75 28.792 16.75 27V17C16.75 15.208 18.208 13.75 20 13.75H24C25.792 13.75 27.25 15.208 27.25 17V27ZM23.75 28C23.75 28.414 23.414 28.75 23 28.75H21C20.586 28.75 20.25 28.414 20.25 28C20.25 27.586 20.586 27.25 21 27.25H23C23.414 27.25 23.75 27.586 23.75 28Z" fill="#81E8CB"/>
</svg>
