<svg width="44" height="44" viewBox="0 0 44 44" fill="none" xmlns="http://www.w3.org/2000/svg">
<rect width="44" height="44" rx="6" fill="white" fill-opacity="0.1"/>
<path d="M27 12.25H17C14.381 12.25 12.25 14.381 12.25 17V23C12.25 25.619 14.381 27.75 17 27.75H21.25V30.25H18C17.586 30.25 17.25 30.586 17.25 31C17.25 31.414 17.586 31.75 18 31.75H26C26.414 31.75 26.75 31.414 26.75 31C26.75 30.586 26.414 30.25 26 30.25H22.75V27.75H27C29.619 27.75 31.75 25.619 31.75 23V17C31.75 14.381 29.619 12.25 27 12.25ZM30.25 23C30.25 24.792 28.792 26.25 27 26.25H17C15.208 26.25 13.75 24.792 13.75 23V17C13.75 15.208 15.208 13.75 17 13.75H27C28.792 13.75 30.25 15.208 30.25 17V23Z" fill="#81E8CB"/>
</svg>
