<svg width="31" height="21" viewBox="0 0 31 21" fill="none" xmlns="http://www.w3.org/2000/svg">
<path d="M2.41667 20.5H29.0833C30 20.5 30.75 19.75 30.75 18.8333C30.75 17.9167 30 17.1667 29.0833 17.1667H2.41667C1.5 17.1667 0.75 17.9167 0.75 18.8333C0.75 19.75 1.5 20.5 2.41667 20.5ZM2.41667 12.1667H29.0833C30 12.1667 30.75 11.4167 30.75 10.5C30.75 9.58333 30 8.83333 29.0833 8.83333H2.41667C1.5 8.83333 0.75 9.58333 0.75 10.5C0.75 11.4167 1.5 12.1667 2.41667 12.1667ZM0.75 2.16667C0.75 3.08333 1.5 3.83333 2.41667 3.83333H29.0833C30 3.83333 30.75 3.08333 30.75 2.16667C30.75 1.25 30 0.5 29.0833 0.5H2.41667C1.5 0.5 0.75 1.25 0.75 2.16667Z" fill="white"/>
</svg>
